<?xml version="1.0" encoding="utf-8"?>
<!-- Generator: Adobe Illustrator 13.0.0, SVG Export Plug-In . SVG Version: 6.00 Build 14948)  -->
<!DOCTYPE svg PUBLIC "-//W3C//DTD SVG 1.1//EN" "http://www.w3.org/Graphics/SVG/1.1/DTD/svg11.dtd">
<svg version="1.1" id="Layer_1" xmlns="http://www.w3.org/2000/svg" xmlns:xlink="http://www.w3.org/1999/xlink" x="0px" y="0px"
	 width="184.332px" height="184.32px" viewBox="0 0 184.332 184.32" enable-background="new 0 0 184.332 184.32"
	 xml:space="preserve">
<path fill="#666773" d="M114.009,21.6c1.684,0.316,3.217,0.783,3.361,2.64c-0.015,0.146-0.037,0.284-0.24,0.24c0-0.08,0-0.16,0-0.24
	c-1.036-3.787-5.336-0.521-7.92-0.24C110.38,22.771,113.074,23.063,114.009,21.6z"/>
<path d="M95.531,32.64c-0.308-0.014-0.332-0.309-0.721-0.24c-0.711-0.887,0.66-1.294,0.24-2.641c3.418-1.197,6.969-2.363,10.561-3.6
	c3.46-1.191,7.166-3.209,10.801-2.64c-5.5,3.781-14.65,3.91-19.682,8.16c6.777,2.582,13.611,5.108,20.16,7.92
	c-0.002,0.638,0.091,1.371-0.239,1.68c-5.624-3.336-12.427-5.494-18.96-7.92C97.028,33.063,96.471,32.659,95.531,32.64z"/>
<path fill="#D9D5D9" d="M69.851,23.28c-2.496,1.745-6.214,2.266-9.36,3.36C63.42,25.33,66.393,24.063,69.851,23.28z"/>
<path d="M87.61,29.04c-4.339-1.979-9.062-3.578-13.44-5.52c5.946,1.014,11.657,4.343,17.52,6.239
	c0.202,0.876,1.871,1.897,0.72,2.641c-1.169-0.751-1.752-2.088-3.12-2.641C88.69,29.561,88.348,29.103,87.61,29.04z"/>
<path fill="#04742D" d="M101.05,26.64c0.675-0.286,1.38-0.54,2.16-0.721c0.16,0,0.319,0,0.479,0
	c-0.705,0.496-1.731,0.669-2.642,0.96C101.05,26.8,101.05,26.719,101.05,26.64z"/>
<path fill="#D9D5D9" d="M60.25,26.64c-1.14,0.779-2.711,1.128-4.32,1.439C57.121,27.351,58.563,26.873,60.25,26.64z"/>
<path fill="#04742D" d="M100.571,26.88c-0.807,0.876-3.958,1.48-5.761,2.16c0-0.08,0-0.16,0-0.24
	C96.626,28.058,98.388,27.258,100.571,26.88z"/>
<path fill="#666773" d="M92.891,30.96c-0.206-0.766,0.377-0.742,0.479-1.2c0.449,0.271,1.156,0.284,0.961,1.2
	C93.626,31.176,93.593,31.176,92.891,30.96z"/>
<path fill="#015FAF" d="M47.05,31.68c0.051,0.269,0.267,0.374,0.48,0.479c4.896,2.465,10.324,4.396,15.12,6.96c0,0.08,0,0.16,0,0.24
	c-5.324-2.437-10.869-4.651-16.08-7.2c0-0.08,0-0.16,0-0.24C46.811,31.921,46.856,31.726,47.05,31.68z"/>
<path fill="#0496E6" d="M22.81,39.36c7.614-2.786,14.891-5.91,23.76-7.44c0,0.08,0,0.16,0,0.24c5.211,2.549,10.756,4.764,16.08,7.2
	c0,0.24,0,0.479,0,0.72c-7.355,2.405-14.197,5.323-21.84,7.44c-0.24,0-0.48,0-0.72,0c-6.055-2.266-11.392-5.249-17.28-7.681
	C22.81,39.68,22.81,39.52,22.81,39.36z"/>
<path d="M68.41,40.56c0.617-2.04,3.239-2.3,5.04-2.88c5.604-1.81,11.991-4.357,17.52-5.521c0.148,0.213,0.29,0.429,0,0.48
	C83.472,35.301,75.145,37.135,68.41,40.56z"/>
<path fill="#F2C901" d="M89.771,33.6c2.407-0.895,4.91-1.166,7.2,0c0.079,0,0.159,0,0.239,0c3.259,1.542,6.84,2.761,10.32,4.08
	c0.08,0,0.16,0,0.239,0c0.758,0.603,1.834,0.887,2.881,1.199c0.501,0.139,0.685,0.596,1.438,0.48
	c0.063,0.337,0.527,0.273,0.721,0.479c0.014,0.308,0.309,0.333,0.24,0.721c-3.277,1.557-6.891,2.607-10.561,3.84
	c-3.1,1.041-8.214,3.447-11.28,3.359c-3.183-0.09-6.439-2.448-9.36-3.6c-3.309-1.305-6.404-2.354-9.6-3.6
	c-0.076-0.325-0.342-0.458-0.24-0.96c0.359-0.281,0.982-0.299,1.2-0.721c0.418,0.019,0.747-0.053,0.96-0.239
	c0.909-0.291,1.936-0.465,2.64-0.96c0.418,0.018,0.746-0.055,0.96-0.24c2.55-0.65,4.951-1.449,7.2-2.4c0.08,0,0.16,0,0.24,0
	c1.59-0.33,3.032-0.808,4.32-1.439C89.61,33.6,89.69,33.6,89.771,33.6z"/>
<path fill="#FD6A50" d="M141.371,32.64c0.08,0,0.16,0,0.24,0c8.131,1.79,15.064,4.773,21.84,7.92
	c-0.014,0.146-0.035,0.283-0.24,0.239c-3.347,1.316-6.742,2.311-10.319,3.601c-3.22,1.162-7.058,3.678-10.319,3.6
	c-2.738-0.064-7.583-2.812-10.32-3.84c-3.498-1.313-6.668-2.623-9.84-4.08C128.041,36.91,135.641,35.71,141.371,32.64z"/>
<path fill="#666773" d="M62.65,39.36c0-0.08,0-0.16,0-0.24c0.16,0,0.32,0,0.48,0c0.003,0.478,0.655,0.305,0.48,0.96
	c-0.307,0.013-0.333,0.309-0.72,0.24c-0.204,0.044-0.226-0.094-0.24-0.24C62.65,39.84,62.65,39.6,62.65,39.36z"/>
<path fill="#666773" d="M117.371,40.32c-0.175-0.655,0.478-0.483,0.479-0.96c0.356,0.284,1.071,0.208,0.96,0.96
	C118.503,40.648,117.677,40.648,117.371,40.32z"/>
<path fill="#015FAF" d="M22.81,39.84c5.889,2.433,11.226,5.415,17.28,7.681c-0.284,0.646-1.251-0.001-1.68,0
	c-5.21-2.391-10.485-4.714-15.6-7.2C22.834,40.051,22.461,39.946,22.81,39.84z"/>
<path fill="#015FAF" d="M62.65,40.08c0.014,0.146,0.036,0.284,0.24,0.24c-0.202,0.517-1.237,0.202-1.44,0.72
	c-2.736,0.544-4.808,1.752-7.44,2.4c-0.373,0.347-1.12,0.319-1.44,0.72c-0.977,0.063-1.628,0.451-2.4,0.72
	c-2.219,0.821-4.624,1.456-6.72,2.4c-0.454-0.054-0.529,0.271-0.96,0.24c-0.307,0.333-1.133,0.146-1.44,0.479
	c-0.045-0.193-0.241-0.239-0.24-0.479C48.453,45.403,55.295,42.485,62.65,40.08z"/>
<path fill="#FFFFFF" d="M86.411,49.92c-5.408,2.045-10.99,3.782-16.8,5.761c-1.87,0.637-3.882,1.923-5.52,1.92
	c-3.063-0.006-7.104-2.843-9.84-4.08c-3.363-1.521-6.454-2.67-9.12-4.561c5.427-1.869,10.979-3.806,16.8-5.76
	c1.93-0.648,4.218-1.735,5.76-1.68c1.875,0.066,4.248,1.781,6.24,2.64C78.25,46.021,82.67,47.272,86.411,49.92z"/>
<path fill="#666773" d="M38.41,47.52c0.429-0.001,1.396,0.646,1.68,0c0.24,0,0.48,0,0.72,0c-0.001,0.24,0.194,0.286,0.24,0.479
	c-0.882-0.078-2.125,0.205-2.64-0.24C38.41,47.68,38.41,47.6,38.41,47.52z"/>
<path fill="#666773" d="M38.89,48.719c0.73-0.01,1.58-0.14,1.44,0.721C39.782,49.96,38.833,49.527,38.89,48.719z"/>
<path fill="#666773" d="M138.25,49.92c0-0.08,0-0.16,0-0.239c0.734,0.298,0.767,0.697,0.24,1.199c-0.16,0-0.32,0-0.48,0
	C137.957,50.426,138.281,50.351,138.25,49.92z"/>
<path fill="#402E2C" d="M144.97,52.8c-0.15,0.729,0.308,2.067-0.239,2.4C144.88,54.471,144.423,53.133,144.97,52.8z"/>
<path fill="#04742D" d="M41.53,53.28c3.053-0.316,5.363,2.145,8.16,2.88c0.756-0.116,0.543,0.736,1.44,0.48
	c1.403,0.998,3.232,1.566,4.8,2.399c1.608,0.792,3.381,1.419,4.8,2.4c0.714,8.535,0.601,19.012,0.72,27.359
	c-0.051,0.27-0.266,0.374-0.48,0.48c-1.214,0.175-1.421-0.659-2.4-0.72c-5.46-2.619-11.053-5.106-16.08-8.16c0-0.16,0-0.32,0-0.48
	c-0.667-0.853,0.199-3.238-0.48-4.08c-0.14-6.174-0.473-13.354-0.48-20.88C41.53,54.4,41.53,53.84,41.53,53.28z"/>
<path fill="#402E2C" d="M37.45,53.52c0.08,0,0.16,0,0.24,0c0,0.16,0,0.319,0,0.479c0,1.28,0,2.561,0,3.84
	C37.135,56.876,37.607,54.883,37.45,53.52z"/>
<path fill="#FB5D01" d="M140.169,54c1.713,1.32,0.961,4.219,0.961,6.48c0,7.037-0.098,15.33-0.479,21.359
	c-3.207,1.781-6.942,2.957-10.562,4.32c-3.512,1.324-7.09,3.146-10.799,3.36c-1.304-3.72-0.721-8.854-0.721-13.681
	c0-4.81-0.177-9.716,0.239-13.92C125.197,58.547,133.042,56.633,140.169,54z"/>
<path fill="#666773" d="M112.571,56.88c0.789,0.571,2.106,0.614,2.88,1.2C114.753,58.277,112.972,57.751,112.571,56.88z"/>
<path fill="#402E2C" d="M37.69,59.76c0.551,0.489,0.087,1.993,0.24,2.881C37.379,62.151,37.843,60.647,37.69,59.76z"/>
<path fill="#171115" d="M114.731,81.36c-0.157-5.523,0.315-11.676-0.239-16.8c-0.357,0.362-0.388,1.053-0.48,1.68
	c-0.332-0.388-0.68-0.76-0.961-1.2c1.306,0.344,0.688-1.232,1.682-1.2C115.112,69.139,115.144,76.066,114.731,81.36z"/>
<path fill="#402E2C" d="M37.93,64.08c0.557,1.203,0.083,3.438,0.24,5.04C37.614,67.917,38.088,65.683,37.93,64.08z"/>
<path fill="#171115" d="M41.291,67.2c0.559,2.961,0.081,6.959,0.24,10.32C40.971,74.56,41.45,70.561,41.291,67.2z"/>
<path fill="#402E2C" d="M141.371,69.12c0,2.64,0,5.28,0,7.92C140.971,74.958,140.971,71.203,141.371,69.12z"/>
<path fill="#402E2C" d="M144.731,69.12c0,3.28,0,6.561,0,9.84C144.332,76.239,144.332,71.842,144.731,69.12z"/>
<path fill="#402E2C" d="M38.17,69.6c0.556,1.124,0.083,3.276,0.24,4.8C37.854,73.276,38.328,71.123,38.17,69.6z"/>
<path fill="#402E2C" d="M118.332,69.84c0,5.681,0,11.36,0,17.04C117.93,81.76,117.93,74.96,118.332,69.84z"/>
<path fill="#FD6A50" d="M21.37,77.04c0.044,0.204-0.093,0.228-0.24,0.24c0.085,6.302,0.386,16.438,0.96,22.8
	c0.17,1.887,1.572,2.667,2.16,3.84c-0.24,0-0.48,0-0.72,0c-0.08,0-0.16,0-0.24,0c-2.747-2.758-2.327-13.512-2.64-20.64
	c-0.095-2.165-0.425-4.224-0.24-6.24C20.857,77.27,21.212,76.321,21.37,77.04z"/>
<path fill="#FB5D01" d="M21.37,77.04c2.808,1.116,5.337,2.299,8.88,4.08c2.499,1.256,7.077,3.098,7.92,4.561
	c0.693,1.201,0.625,4.089,0.72,6c0.341,6.838,0.686,13.639,0.72,19.439c-0.054,0.188-0.007,0.474-0.24,0.48
	c-0.751-0.534-2.62-1.212-3.12-1.2c-3.889-2.264-7.858-4.036-12-6.48c-0.588-1.173-1.99-1.953-2.16-3.84
	c-0.574-6.359-0.875-16.498-0.96-22.8C21.277,77.267,21.415,77.244,21.37,77.04z"/>
<path fill="#171115" d="M89.05,80.16c0,0.96,0,1.92,0,2.88C88.652,82.626,88.652,80.574,89.05,80.16z"/>
<path fill="#171115" d="M40.811,83.04c1.117-0.215,1.23,1.272,0,0.96C40.811,83.68,40.811,83.36,40.811,83.04z"/>
<path fill="#171115" d="M89.05,84.24c0,1.36,0,2.72,0,4.08C88.651,87.513,88.651,85.048,89.05,84.24z"/>
<path fill="#04742D" d="M139.451,88.32c0.16,0,0.32,0,0.479,0c1.479,2.975,0.96,7.472,0.96,12.479
	c0,3.615,0.992,11.294-0.239,13.922c-0.957,2.039-8.116,4.157-10.319,5.038c-4.058,1.624-7.388,3.33-11.521,4.08
	c-0.414-0.146,0.02-1.138-0.479-1.198c0.48-8.853-0.942-18.191,0.239-26.16C125.186,93.416,132.31,90.86,139.451,88.32z"/>
<path fill="#171115" d="M89.05,89.04c0,1.521,0,3.04,0,4.562C88.651,92.634,88.651,90.006,89.05,89.04z"/>
<path d="M41.291,92.16c0.648,3.069,0.684,7.222,0.48,10.08c-0.613-0.027-0.84-0.44-1.2-0.72c0.365-0.574,1.273-1.116,0-1.44
	C42.419,99.143,40.601,94.272,41.291,92.16z"/>
<path fill="#04742D" d="M65.771,107.521c0.151-3.05-0.308-6.708,0.24-9.36c1.003-0.123,1.626,0.134,2.16,0.48
	c2.775,1.272,5.785,2.792,9.36,4.56c2.84,1.404,7.906,3.003,9.12,5.521c0.158,1.762-0.317,4.156,0.24,5.52c0,2.72,0,5.44,0,8.16
	c0,2.398,0,4.8,0,7.2c0,0.238,0,0.479,0,0.72c0,1.438,0,2.88,0,4.32c-1.361,0.789-2.302-0.672-3.6-0.722
	c-5.317-2.683-10.708-5.292-15.84-8.16c-1.229-1.076-0.783-3.146-1.44-4.318c-0.013-2.84,0.088-4.35,0-6.96
	C66.282,112.408,66.128,109.938,65.771,107.521z"/>
<path fill="#974721" d="M61.69,101.28c0.553,0.646,0.085,2.313,0.24,3.36C61.377,103.993,61.845,102.325,61.69,101.28z"/>
<path fill="#171115" d="M100.571,102.48c0.628-0.068,1.032,0.087,0.96,0.72C100.903,103.268,100.5,103.112,100.571,102.48z"/>
<path fill="#171115" d="M89.771,105.84c-0.034,0.688-1.001,0.439-1.68,0.48C88.278,105.758,89.251,105.35,89.771,105.84z"/>
<path fill="#974721" d="M61.93,106.8c0,0.802,0,1.602,0,2.4C61.533,108.941,61.533,107.059,61.93,106.8z"/>
<path fill="#666773" d="M65.771,107.521c0.358,2.417,0.512,4.888,0.24,6.96C65.507,112.584,65.89,109.801,65.771,107.521z"/>
<path d="M41.771,107.76c0.541,0.18,0.094,1.348,0.24,1.922C41.13,109.178,41.785,108.481,41.771,107.76z"/>
<path fill="#4AB66E" d="M22.09,108c0.495,0.065,0.057,1.063,0.72,0.96c0.797,8.606-0.383,17.872,1.92,24.722
	c-0.207,0.192-0.143,0.656-0.48,0.72C21.845,127.285,23.1,116.51,22.09,108z"/>
<path fill="#04742D" d="M24.01,108.48c2.246,1.272,4.563,2.477,6.72,3.84c-0.004,0.814,1.591,1.271,1.92,0.96
	c2.607,1.553,5.585,2.734,7.68,4.8c0.421,6.858,0.357,14.203,0.96,20.88c0,0.642,0,1.28,0,1.92c-0.146,0.574,0.301,1.741-0.24,1.92
	c-0.307-0.327-1.133-0.327-1.44,0c-4.39-2.09-8.306-4.653-12.48-6.96c-0.761-0.759-1.468-1.57-2.4-2.158
	c-2.304-6.85-1.124-16.114-1.92-24.722C23.406,108.995,23.975,109.005,24.01,108.48z"/>
<path fill="#402E2C" d="M86.65,108.721c0.557,1.361,0.082,3.758,0.24,5.52C86.333,112.878,86.809,110.482,86.65,108.721z"/>
<path fill="#402E2C" d="M166.089,108.721c0.314,0.003,0.307,0.664,0,0.72c-0.213,0.187-0.541,0.258-0.959,0.24
	C165.154,109.063,166.068,109.337,166.089,108.721z"/>
<path fill="#015FAF" d="M166.089,109.44c0.406,8.248,0.394,18.148,0,26.398c-0.422,0.218-0.742,0.537-0.959,0.96
	c-2.924,0.979-6.039,2.383-9.84,4.08c-2.269,1.015-8.332,4.499-10.32,3.12c0-2.239,0-4.479,0-6.72c0-0.8,0-1.6,0-2.4
	c0-0.08,0-0.158,0-0.238c-0.157-1.764,0.316-4.157-0.239-5.521c0.125-3.555-0.272-7.632,0.239-10.8
	c6.309-3.292,13.352-5.849,20.16-8.64C165.548,109.698,165.876,109.627,166.089,109.44z"/>
<path fill="#974721" d="M90.97,111.12c0.399,0.729,0.399,3.111,0,3.84C90.97,113.681,90.97,112.4,90.97,111.12z"/>
<path fill="#974721" d="M61.93,115.681c0.558,1.602,0.082,4.237,0.24,6.238C61.613,120.318,62.089,117.682,61.93,115.681z"/>
<path fill="#974721" d="M90.97,117.36c0.399,0.887,0.399,3.433,0,4.32C90.97,120.24,90.97,118.8,90.97,117.36z"/>
<path fill="#666773" d="M66.01,121.44c0.657,1.172,0.211,3.242,1.44,4.318C65.944,125.346,65.92,123.45,66.01,121.44z"/>
<path fill="#402E2C" d="M86.891,122.4c0.399,1.843,0.399,5.356,0,7.2C86.891,127.2,86.891,124.8,86.891,122.4z"/>
<path fill="#402E2C" d="M42.97,127.2c0.656,5.584-0.118,12.599,0.96,17.76c-2.194,0.417-5.94-2.138-8.88-3.84
	c-3.197-1.851-7.222-4.151-7.92-5.28c4.174,2.307,8.09,4.87,12.48,6.96c0.047,0.357,1.57,0.965,1.44,0
	c0.542-0.179,0.094-1.346,0.24-1.92c0.833,1.6-0.545,3.921,1.92,3.842C43.324,139.646,42.763,133.168,42.97,127.2z"/>
<path fill="#402E2C" d="M144.731,129.12c0.558,1.363,0.082,3.758,0.239,5.521C144.414,133.277,144.888,130.883,144.731,129.12z"/>
<path fill="#402E2C" d="M66.49,152.88c-0.375-7.385-0.372-15.147-0.72-22.56c0.501,0.539,1.383,0.696,2.16,0.96
	c-0.591-0.031-1.156-0.036-1.44,0.24C65.938,138.246,66.812,145.589,66.49,152.88z"/>
<path fill="#974721" d="M118.332,134.641c0.155-1.204-0.314-3.035,0.239-3.842C118.416,132.004,118.884,133.835,118.332,134.641z"/>
<path fill="#FB5D01" d="M66.73,132.48c0.127-0.193,0.25-0.391,0.24-0.722c3.661,0.486,6.806,3.055,10.08,4.802
	c3.306,1.764,6.799,3.28,9.6,5.52c0.41,8.312,0.502,16.938,0.48,25.681c-0.64,0-1.28,0-1.92,0c-0.08,0-0.16,0-0.24,0
	c-1.081-0.92-2.407-1.593-3.84-2.159c-0.355-0.125-0.605-0.355-0.96-0.48c-1.449-1.511-3.667-2.252-5.52-3.358
	c-1.594-1.604-6.322-2.104-7.44-4.562c-1.196-2.627-0.078-7.19-0.24-11.04c-0.165-3.906-0.379-7.54-0.24-10.8
	C67.104,134.666,66.747,133.805,66.73,132.48z"/>
<path fill="#FD6A50" d="M66.73,132.48c0.016,1.324,0.373,2.186,0,2.88C66.333,134.946,66.333,132.895,66.73,132.48z"/>
<path fill="#171115" d="M114.492,132.721c0.398,7.68,0.398,17.038,0,24.72c0-3.12,0-6.24,0-9.36c0-0.08,0-0.16,0-0.24
	c0-1.358,0-2.72,0-4.078c0-3.36,0-6.722,0-10.08C114.492,133.36,114.492,133.04,114.492,132.721z"/>
<path fill="#402E2C" d="M144.97,134.88c0,0.802,0,1.602,0,2.4C144.574,137.021,144.574,135.139,144.97,134.88z"/>
<path fill="#974721" d="M118.332,135.601c0.558,1.762,0.08,4.559,0.239,6.72c-0.542-0.179-0.094-1.347-0.239-1.92
	c0-0.08,0-0.16,0-0.24C118.332,138.641,118.332,137.12,118.332,135.601z"/>
<path fill="#666773" d="M41.05,142.8c0.13,0.965-1.393,0.357-1.44,0C39.917,142.472,40.744,142.472,41.05,142.8z"/>
<path fill="#402E2C" d="M87.13,142.8c0.559,3.121,0.081,7.28,0.24,10.802C86.811,150.479,87.29,146.321,87.13,142.8z"/>
<path fill="#402E2C" d="M114.492,143.76c0,1.359,0,2.721,0,4.079C114.091,147.032,114.091,144.568,114.492,143.76z"/>
<path fill="#FD6A50" d="M85.21,167.76c0.64,0,1.28,0,1.92,0C86.955,168.736,85.548,168.495,85.21,167.76z"/>
<path fill="#D9D5D9" d="M53.05,29.04c-0.773,0.827-2.572,0.628-3.12,1.68c2.519,1.67,5.438,2.611,8.4,3.841
	c2.655,1.101,5.787,3.139,8.64,3.359c3.432,0.267,7.625-2.162,11.04-3.359c3.727-1.308,7.287-2.234,10.56-3.601
	c-4.7-3.14-11.38-4.3-16.32-7.2c1.682-3.201,6.744-3.957,10.8-5.279c4.334-1.414,9.033-4.25,13.68-3.84
	c2.876,0.254,6.611,2.131,9.841,3.359c4.618,1.758,9.378,2.614,11.521,6c0.673-0.287,1.656-0.264,2.641-0.24
	c7.057,3.023,15.321,4.839,21.6,8.641c5.104,0.698,8.549,2.542,13.92,4.56c2.656,0.998,9.563,2.936,10.562,5.04
	c0.399,0.844,0.163,2.741,0.239,4.561c0.13,3.067,0.197,6.952,0,11.279c-0.301,6.627,1.232,12.751-1.2,15.841
	c2.024,1.337,1.185,3.291,0.961,6.239c-0.254,3.342,0.171,8.069,0,12.48c-0.173,4.427,0.317,9.077-0.239,11.52
	c-0.189,0.82-0.093,1.226-1.201,1.682c3.055,4.158,1.301,15.109,1.681,23.76c0.132,2.991,0.276,5.604-0.239,8.399
	c-7.217,4.557-15.223,7.795-23.761,11.04c-1.913,0.728-3.716,2.214-5.761,3.119c-5.729,2.54-11.653,5.962-17.76,8.16
	c-1.063,0.383-2.296,0.341-3.359,0.721c-3.705,1.319-7.967,3.809-12.24,5.761c-4.023,1.837-8.357,4.377-12.479,5.279
	c-4.78,1.047-9.353-2.459-13.2-4.561c-1.68-0.918-3.066-2.044-4.56-2.88c-3.768-2.109-7.32-3.497-11.04-5.521
	c-5.537-3.011-11.149-6.752-17.04-9.84c-7.855-4.117-15.313-8.907-22.08-13.68c-1.259-4.185-0.94-9.675-1.2-15.84
	c-0.25-5.929-1.375-12.045,0.48-15.602c-2.586-2.581-2.096-10.836-2.4-16.56c-0.261-4.91-0.786-9.787-0.24-13.92
	c-0.179-0.739,0.659-0.461,0.48-1.2c0.4-0.403-1.03-2.362-1.2-3.84c-0.568-4.939-0.637-14.572-0.96-21.12
	c-0.116-2.362-0.543-5.031,0-6.24c1.036-2.304,8.666-3.957,11.76-5.04c1.987-0.696,4.163-1.45,6.24-2.16
	c2.194-0.75,4.464-1.904,6-2.16c0.918-0.151,2.33,0.124,2.88,0C47.66,31.163,50.337,29.196,53.05,29.04z M166.571,45.12
	c0.907-2.542-0.71-4.546-3.12-4.56c-6.773-3.146-13.709-6.13-21.84-7.92c-0.332-1.028-1.406-1.313-2.641-1.44
	c-6.975-2.446-13.719-6.198-21.6-6.96c-0.146-1.856-1.679-2.323-3.361-2.64c-2.67-1.094-5.627-2.273-8.639-3.36
	c-2.805-1.011-5.918-2.589-8.4-2.88c-4.681-0.549-8.598,2.091-12.48,3.359c-3.545,1.159-6.94,2.121-9.84,3.36
	c-1.063,0.058-1.588,0.652-1.92,1.44c2.625,1.239,5.554,2.461,8.4,3.6c2.891,1.156,6.138,1.71,8.16,3.84
	c-2.996,1.585-6.604,2.566-10.32,3.84c-3.745,1.284-8.726,4.056-12.48,3.601c-2.915-0.354-6.317-2.479-9.12-3.601
	c-3.118-1.248-6.102-2.521-8.88-4.08c-0.505,0.534-1.873,0.207-1.92,1.2c-8.87,1.53-16.146,4.654-23.76,7.44
	c-2.197,0.042-3.687,0.793-4.08,2.64c0,0.4,0,0.8,0,1.2c0.08,0,0.16,0,0.24,0c0.01,0.33-0.113,0.527-0.24,0.72
	c0.608,8.912,0.285,18.755,1.92,26.641c0.215,0.424,0.579,0.7,0.72,1.199c-0.833,1.091-1.752,3.364-0.96,5.28
	c-0.185,2.017,0.145,4.075,0.24,6.24c0.313,7.127-0.106,17.882,2.64,20.64c-0.784,0.978-1.437,2.084-1.2,4.08
	c1.01,8.511-0.245,19.285,2.16,26.4c1.774,2.66,5.04,4.054,7.92,5.76c3.765,2.23,7.559,4.698,12,6
	c2.024,3.181,6.119,4.446,10.08,6.72c4.288,2.462,7.291,5.396,12.48,6c0.201,0.946,0.941,1.478,1.44,1.921
	c2.274,2.022,6.622,3.598,10.08,5.521c3.194,1.775,7.307,5.053,10.56,5.28c3.462,0.24,8.582-2.736,12.24-4.32
	c5.478-2.371,10.295-4.488,13.92-7.2c5.503-0.76,9.119-2.885,13.92-5.04c4.898-2.199,9.572-4.282,12.721-6.72
	c5.49-1.169,8.947-2.912,13.92-5.28c2.565-1.221,9.137-3.637,10.319-5.52c1.875-2.981,0.721-10.263,0.721-15.602
	c0-7.208,1.056-14.112-2.159-16.56c-6.195,2.127-12.213,5.703-18.48,6.96c-0.631-8.314-0.043-17.481,0-25.92
	c5.831-4.25,14.384-5.777,21.119-9.12c0.216-1.896-0.971-2.389-1.438-3.6c0.144-0.984,1.882-1.629,0.96-2.881
	C166.317,61.961,167.098,53.51,166.571,45.12z"/>
<path fill="#666773" d="M166.332,42.48c-0.484-1.028-1.897-1.889-3.36-1.2c0.046-0.194,0.241-0.239,0.239-0.48
	c0.205,0.044,0.228-0.094,0.24-0.239c2.41,0.014,4.027,2.019,3.12,4.56c-0.315-0.085-0.378-0.422-0.721-0.479c0-0.08,0-0.16,0-0.24
	c0.239,0,0.479,0,0.721,0c-0.143-0.497,0.298-1.577-0.239-1.681C166.332,42.64,166.332,42.56,166.332,42.48z"/>
<path fill="#666773" d="M138.731,31.44c-0.045-0.204,0.093-0.227,0.239-0.24c1.232,0.127,2.309,0.412,2.641,1.44
	c-0.08,0-0.16,0-0.24,0c0.045-0.204-0.094-0.228-0.24-0.24c-0.248-0.614-1.562-0.958-2.159-0.48
	C138.925,31.726,138.73,31.681,138.731,31.44z"/>
<path fill="#666773" d="M18.73,42c0.393-1.847,1.882-2.598,4.08-2.64c0,0.16,0,0.32,0,0.479c-0.349,0.106,0.024,0.211,0,0.48
	c-0.614,0.112-1.36-0.849-1.68-0.24C19.644,40.033,19.395,41.225,18.73,42z"/>
<path fill="#666773" d="M88.09,27.6c-0.045-0.194-0.241-0.239-0.24-0.48c2.119,0.699,4.143,2.441,6.959,1.68c0,0.08,0,0.16,0,0.24
	C92.495,30.315,90.151,28.111,88.09,27.6z"/>
<path fill="#666773" d="M74.65,22.08c1.021,0.101,1.82,0.419,2.4,0.96c-0.08,0-0.16,0-0.24,0c-1.094-0.295-2.667-0.891-3.6,0
	c-0.035,0.754,0.615,0.825,1.2,0.96c4.436,1.964,9.102,3.698,13.68,5.521c0.668,0.292,1.323,0.597,1.68,1.199
	c-1.101,1.791-3.448,1.755-5.28,2.4c-5.25,1.853-11.257,4.345-17.28,5.76c-0.092,0.813,1.063,0.378,0.72,1.44c-0.48,0-0.96,0-1.44,0
	c-0.205-0.765,0.209-0.911,0.48-1.2c-4.45-1.86-9.342-3.778-14.16-5.76c-2.033-0.836-3.708-2.058-5.76-1.68
	c-0.194,0.045-0.239,0.24-0.48,0.239c0.047-0.993,1.415-0.666,1.92-1.2c2.779,1.561,5.762,2.833,8.88,4.08
	c2.803,1.121,6.205,3.247,9.12,3.601c3.754,0.455,8.735-2.315,12.48-3.601c3.716-1.273,7.324-2.255,10.32-3.84
	c-2.022-2.129-5.27-2.684-8.16-3.84c-2.846-1.139-5.774-2.36-8.4-3.6C73.063,22.732,73.587,22.137,74.65,22.08z"/>
<path fill="#402E2C" d="M109.21,24c2.584-0.281,6.884-3.546,7.92,0.24c-0.193,0.127-0.391,0.25-0.721,0.24
	c0.916-0.679-0.097-1.444-0.72-1.92c-7.377,1.982-14,4.72-21.12,6.96c0.418,1.134,0.094,1.707-0.721,2.16
	c-0.252,0.893,0.811,0.471,0.96,0.96c-0.959-0.236-1.44-0.236-2.399,0c2.198-0.767-0.005-1.173,0-2.881
	c-2.869-1.198-9.68-3.968-14.16-5.76c-0.574-0.229-1.378-0.741-2.4-0.96c-0.432-0.093-3.723-0.447-1.44,0.96
	c-0.585-0.135-1.235-0.206-1.2-0.96c0.933-0.891,2.506-0.295,3.6,0c0.961,0.799,2.579,0.941,3.6,1.68
	c0.349-0.105-0.024-0.211,0-0.479c0.147,0.333,0.924,0.036,0.96,0.479c-1.006,0.195,1.438,0.694,1.92,0.961
	c-0.06-0.262-0.478-0.163-0.48-0.48c0.447,0.033,0.802,0.158,0.96,0.48c0.399,0.724,3.017,1.3,4.32,1.92
	c2.061,0.511,4.405,2.715,6.72,1.439c1.803-0.68,4.954-1.284,5.761-2.16c0.054-0.187,0.2-0.278,0.479-0.239c0,0.079,0,0.159,0,0.239
	c0.908-0.291,1.936-0.464,2.641-0.96c1.691-0.308,3.068-0.93,4.561-1.439C108.398,24.147,109.173,24.444,109.21,24z M94.332,30.96
	c0.195-0.916-0.512-0.929-0.961-1.2c-0.103,0.458-0.686,0.435-0.479,1.2C93.593,31.176,93.626,31.176,94.332,30.96z"/>
<path fill="#04742D" d="M76.811,23.04c0.08,0,0.16,0,0.24,0c1.322,0.198,2.043,0.997,3.36,1.2c-0.024,0.269,0.349,0.374,0,0.479
	C79.39,23.981,77.771,23.839,76.811,23.04z"/>
<path fill="#04742D" d="M82.811,25.2c0.002,0.317,0.42,0.219,0.48,0.48c-0.482-0.267-2.926-0.766-1.92-0.961
	C82.073,24.657,82.108,25.263,82.811,25.2z"/>
<path fill="#04742D" d="M88.09,27.6c-1.303-0.62-3.92-1.196-4.32-1.92c1.319,0.521,2.711,0.969,4.08,1.439
	C87.85,27.361,88.045,27.406,88.09,27.6z"/>
<path fill="#171115" d="M94.81,32.64c-0.15-0.489-1.212-0.067-0.96-0.96c0.813-0.453,1.139-1.026,0.721-2.16
	c7.12-2.24,13.743-4.978,21.12-6.96c0.623,0.476,1.635,1.241,0.721,1.92c-5.791,1.97-11.521,4.001-17.521,5.76
	c-0.439,0.28-0.813,0.627-1.199,0.96c5.984,3.214,12.992,5.407,19.68,7.92c-0.429,1.144,0.07,1.34,0.479,2.16
	c-7.961,3.079-16.702,5.378-24.479,8.64c7.446,2.633,14.248,5.912,21.601,8.641c-0.302,0.73-0.183,0.933,0.239,1.439
	c-0.75,0.11-0.768-0.513-0.719-1.2c-6.65-2.869-13.58-5.461-20.16-8.399c-0.879-0.158-0.922,0.52-1.681,0.479
	c1.63-3.41,7.503-2.575,10.08-5.04c4.784-0.815,8.67-2.529,12.722-4.08c-7.863,1.098-15.197,4.804-22.801,6.96
	c0.18,2.576-3.665,2.684-2.4,0.24c-6.284-2.597-12.709-5.051-19.2-7.439c3.045,1.47,6.324,3.067,9.6,4.56
	c3.204,1.458,7.055,2.257,8.88,5.28c-0.644,0.522-1.063-0.715-1.68-0.96c-4.639,1.602-9.074,3.406-13.92,4.8
	c0.407-0.554,1.603-0.318,1.92-0.96c0.08,0,0.16,0,0.24,0c1.169-0.271,2.287-0.594,3.12-1.2c2.56-0.88,5.002-1.877,7.68-2.64
	c0.578,0.099,0.521-0.438,1.2-0.24c-0.329-0.551-0.988-0.771-1.44-1.2c-0.847-0.033-1.073-0.687-1.92-0.72c-0.08,0-0.16,0-0.24,0
	c-5.125-2.636-10.696-4.824-16.08-7.2c-0.039-0.281-0.438-0.202-0.72-0.24c0.318-0.401,0.636-0.804,0.48-1.68
	c7.686-2.313,14.644-5.355,22.56-7.439c-0.001-1.039-0.976-1.104-1.44-1.681c0-0.08,0-0.16,0-0.24
	c1.368,0.553,1.951,1.89,3.12,2.641c1.15-0.742-0.519-1.765-0.72-2.641c-5.863-1.896-11.574-5.226-17.52-6.239
	c4.378,1.941,9.101,3.54,13.44,5.52c0.06,0.261,0.477,0.163,0.48,0.48c-4.578-1.822-9.244-3.557-13.68-5.521
	c-2.283-1.407,1.008-1.053,1.44-0.96c1.022,0.219,1.826,0.73,2.4,0.96c4.48,1.792,11.292,4.562,14.16,5.76
	c-0.005,1.708,2.198,2.114,0,2.881c-0.91,0.291-1.936,0.464-2.64,0.96c-0.08,0-0.16,0-0.24,0c-1.59,0.33-3.032,0.808-4.32,1.439
	c-0.08,0-0.16,0-0.24,0c-2.55,0.65-4.95,1.449-7.2,2.4c-0.214,0.187-0.542,0.258-0.96,0.24c-1.03,0.17-2.008,0.392-2.64,0.96
	c-0.213,0.187-0.542,0.258-0.96,0.239c-1.547,0.135-2.528,0.832-3.6,1.44c4.79,2.063,10.22,4.17,15.36,6.24
	c2.001,0.806,4.64,1.271,5.52,2.64c0,0.24,0,0.48,0,0.72c1.059,1.538,2.056-0.839,1.44-1.2c7.804-2.596,15.296-5.503,23.521-7.68
	c-0.453-1.229-2.201-1.161-3.361-1.68c-0.754,0.115-0.938-0.342-1.438-0.48c-0.758-0.603-1.834-0.886-2.881-1.199
	c-0.079,0-0.159,0-0.239,0c-2.8-1.602-6.318-2.482-9.359-3.841c-0.061-0.26-0.479-0.163-0.479-0.479
	c6.533,2.427,13.336,4.584,18.96,7.92c0.33-0.311,0.237-1.042,0.239-1.68c-6.55-2.812-13.382-5.338-20.16-7.92
	c5.03-4.25,14.183-4.379,19.681-8.16c-3.634-0.569-7.34,1.448-10.8,2.64c-3.592,1.236-7.142,2.402-10.561,3.6
	c0.42,1.347-0.951,1.754-0.24,2.641c0.388-0.067,0.413,0.227,0.722,0.24c0,0.079,0,0.159,0,0.239
	C95.143,32.948,95.119,32.653,94.81,32.64z M90.97,32.64c0.29-0.052,0.148-0.268,0-0.48c-5.529,1.163-11.916,3.711-17.52,5.521
	c-1.801,0.58-4.423,0.84-5.04,2.88C75.145,37.135,83.472,35.301,90.97,32.64z"/>
<path fill="#402E2C" d="M95.531,32.64c0.94,0.019,1.497,0.423,2.16,0.72c0.002,0.316,0.42,0.22,0.479,0.479
	c-0.431,0.031-0.506-0.293-0.959-0.239c-0.08,0-0.16,0-0.24,0c-0.202-0.518-1.053-0.388-1.439-0.721
	C95.531,32.8,95.531,32.719,95.531,32.64z"/>
<path fill="#974721" d="M117.13,24.24c0,0.08,0,0.16,0,0.24c-5.778,2.381-12.319,4-18.24,6.239c2.443,1.975,5.686,2.837,8.88,4.08
	c2.513,0.978,6.965,3.465,9.601,3.601c3.396,0.175,7.424-2.242,10.801-3.36c3.699-1.225,7.293-2.148,10.561-3.6
	c-0.001,0.241,0.193,0.286,0.239,0.479c-5.066,1.933-10.304,3.49-15.841,5.28c-4.448,1.438-5.85,1.835-10.56,0
	c-4.771-1.859-9.688-3.831-14.159-6c-0.176-0.655,0.477-0.483,0.479-0.96c6.001-1.759,11.73-3.791,17.521-5.76
	C116.742,24.49,116.937,24.367,117.13,24.24z"/>
<path fill="#402E2C" d="M47.05,31.68c2.053-0.378,3.727,0.844,5.76,1.68c4.817,1.981,9.709,3.899,14.16,5.76
	c-0.271,0.289-0.685,0.436-0.48,1.2c0.48,0,0.96,0,1.44,0c0.343-1.063-0.812-0.628-0.72-1.44c6.022-1.415,12.03-3.907,17.28-5.76
	c1.833-0.646,4.18-0.609,5.28-2.399c-0.357-0.604-1.012-0.908-1.68-1.2c-0.003-0.317-0.42-0.22-0.48-0.48
	c0.738,0.063,1.08,0.521,1.68,0.72c0,0.08,0,0.16,0,0.24c0.464,0.576,1.439,0.642,1.44,1.681c-7.917,2.083-14.874,5.126-22.56,7.439
	c0.156,0.876-0.162,1.278-0.48,1.68c0.282,0.038,0.681-0.042,0.72,0.24c-1.078-0.118-1.798,0.122-2.64,0.24
	c2.783-1.693-2.355-3.135-4.08-3.84c-4.465-1.825-10.95-4.771-14.4-5.76c-0.001,0.24,0.194,0.285,0.24,0.479
	C47.317,32.054,47.101,31.949,47.05,31.68z"/>
<path d="M73.93,55.2c4.846-1.394,9.282-3.199,13.92-4.8c0.617,0.246,1.036,1.483,1.68,0.96c-1.825-3.023-5.676-3.822-8.88-5.28
	c-3.276-1.492-6.555-3.09-9.6-4.56c6.491,2.389,12.917,4.843,19.2,7.439c-1.265,2.443,2.58,2.336,2.4-0.24
	c7.604-2.156,14.938-5.862,22.801-6.96c-4.052,1.551-7.938,3.265-12.722,4.08c-2.576,2.465-8.449,1.63-10.08,5.04
	c0.759,0.04,0.802-0.638,1.681-0.479c6.58,2.938,13.51,5.53,20.159,8.399c-0.048,0.688-0.03,1.311,0.72,1.2c0.24,0,0.48,0,0.721,0
	c1.429,0.199,0.902-1.021,1.199-1.439c7.176-2.427,14.349-4.853,21.36-7.44c1.003-0.123,1.626,0.134,2.16,0.48
	c-1.267-2.989-6.258-3.854-9.841-5.28c-3.796-1.512-7.907-2.781-10.801-4.8c1.799-0.75,3.603,0.545,5.281,1.199
	c5.043,1.969,10.502,4.268,15.6,6.24c-0.335,2.124,4.039,2.145,3.359-0.24c5.297-1.696,11.274-3.952,17.041-6
	c1.366-0.484,4.578-2.242,4.799,0.721c0.134,0.532-0.457,0.342-0.479,0.72c-1.656,0.183-2.9,0.78-4.08,1.44
	c-2.818,0.833-5.363,1.715-7.92,2.64c-2.73,0.988-8.339,2.069-9.359,4.8c-1.006,2.688-0.041,7.7-0.24,12.24
	c-0.229,5.174-0.525,10.366,0,14.64c0.141,0.94-0.987,0.613-1.2,1.2c3.336,0.623,6.938-1.657,10.801-3.12
	c1.673-0.633,3.603-1.197,5.521-1.92c1.244-0.469,4.07-2.089,5.279-1.92c0.615,0.086,2.045,0.84,1.92,1.92
	c-0.147,1.287-4.113,2.175-5.279,2.641c-5.616,2.235-11.385,4.467-16.319,6.96c-2.239,8.374-1.521,18.6-1.921,28.319
	c3.238,0.473,5.863-1.621,8.4-2.64c0.08,0,0.16,0,0.24,0c2.268-0.933,4.704-1.694,6.719-2.88c1.576-0.346,2.863-0.979,4.08-1.682
	c0.864,0.064,1.158-0.442,1.92-0.479c0.306,0.814,1.332,0.909,1.44,1.92c-6.724,4.637-16.375,6.346-23.04,11.04
	c-0.139,7.771,0.094,16.848,0.239,23.52c0.028,1.318,0.714,3.526-0.72,3.842c-1.33-0.262-0.689-2.045-0.721-2.881
	c-0.271-7.591,0.215-17.425,0-24.479c-7.904,3.217-17.109,7.209-25.68,10.56c-0.188,9.834,0.924,20.455,0,28.32
	c-0.768,0.206-0.743-0.378-1.2-0.479c0-0.08,0-0.16,0-0.24c0.399-7.682,0.399-17.04,0-24.72c0-0.08,0-0.16,0-0.24
	c0.173-0.733-0.245-0.875-0.239-1.44c-7.23,3.409-15.273,6.007-22.32,9.602c-0.08,0-0.16,0-0.24,0c-1.376,1.988-4.5,3.56-5.28,0
	c-7.211-3.271-13.55-7.41-20.64-10.802c-0.428,8.594,0.663,19.013,0.24,27.602c-1.494-7.698-0.36-18.485-0.96-27.602
	c-6.956-4.563-14.947-8.093-21.84-12.72c-0.892-0.092-0.627,0.974-1.68,0.72c-3.727-3.731-10.422-6.336-15.6-9.358
	c-1.131-0.661-3.508-1.544-2.88-3.36c3.012-0.351,5.576,2.091,8.4,3.602c3.467,1.852,6.764,4.341,11.04,4.318
	c0.143,0.897,0.839,1.241,1.2,1.92c7.322,2.918,12.756,7.725,20.64,10.08c0.8-1.554-0.298-2.477-0.48-3.84
	c-0.664-4.978-0.716-13.354-0.96-18.72c-0.105-2.332,0.264-4.691-0.48-6.24c-1.235-2.571-7.53-4.461-10.08-5.76
	c-3.766-1.919-6.692-3.882-10.32-5.28c-1.062,1.338-0.202,4.598-0.48,6.72c-0.814-3.455-0.776-6.344-3.36-8.159
	c-4.697-3.303-12.822-5.746-17.28-8.881c-0.225-1.186,0.292-1.628,0.72-2.159c6.751,2.129,11.348,6.412,18.48,8.159
	c-2.206-7.919-1.214-17.205-2.4-26.88c0-0.16,0-0.319,0-0.479c-0.397-4.482-5.486-4.274-8.4-6.24c-0.457-0.103-0.603-0.517-1.2-0.48
	c-0.825-0.614-1.786-1.094-2.88-1.439c-0.457-0.104-0.603-0.517-1.2-0.48c-0.664-0.535-1.466-0.934-2.4-1.199
	c-0.193-0.127-0.39-0.25-0.72-0.24c-0.303-0.577-1.276-0.483-1.68-0.96c-0.107-1.067,0.65-1.271,0.96-1.92
	c6.569,1.911,11.611,5.349,17.76,7.68c0.155,1.205,0.826,1.895,1.68,2.4c1.288,0.167,1.052-1.188,2.16-1.2
	c-0.191,1.755,0.778,0.333,1.68,0.479c6.035,2.926,12.058,5.862,18.48,8.4c0.403,1.099,0.737,2.081,1.44,2.88
	c0.902-0.555,1.016-1.418,0.96-2.64c0.876-0.244,1.907-0.333,2.4-0.96c0.08,0,0.16,0,0.24,0c2.355-0.686,4.738-1.343,6.72-2.4
	C73.771,55.2,73.851,55.2,73.93,55.2z M99.13,54.96c-2.045-0.63-5.447-3.427-7.44-3.6c-3.445-0.298-6.538,2.479-10.32,3.359
	c-0.041,0.28-0.379,0.261-0.72,0.24c-3.412,0.988-6.828,1.973-9.84,3.36c-0.296,0.344-0.826,0.455-1.44,0.479
	c-1.5,0.58-3.492,0.668-3.84,2.4c0.779,0.139,1.117-0.164,1.68-0.24c6.426,3.415,13.705,5.977,19.92,9.601c0,0.319,0,0.64,0,0.96
	c0.427-0.145,0.997,0.704,1.2,0c0.08,0,0.16,0,0.24,0c1.218,0.258,0.997-0.923,1.44-1.44c7.556-3.004,15.447-5.674,23.281-8.399
	c-0.588-0.454-1.164-0.917-1.92-1.2c-0.308-0.014-0.332-0.309-0.721-0.24c-0.337-0.384-0.827-0.613-1.439-0.72
	c-0.758-0.523-1.484-1.075-2.641-1.2c-0.054-0.188-0.201-0.279-0.48-0.24c-0.588-0.452-1.174-0.906-2.159-0.96
	c-0.054-0.187-0.201-0.279-0.479-0.24c-0.757-0.522-1.484-1.074-2.641-1.199C100.4,55.291,99.937,54.954,99.13,54.96z M44.65,53.52
	c-0.83-0.53-1.532-1.188-2.88-1.2c-1.398,3.163-0.648,9.751-0.48,13.68c0,0.4,0,0.8,0,1.2c0.159,3.36-0.319,7.359,0.24,10.32
	c-0.093,0.343-0.288,0.404,0,0.72c-1.427,3.978,3.225,4.965,5.76,6.24c5.266,2.647,11.975,6.565,16.8,7.68
	c-0.086-1.193-1.772-0.787-1.92-1.92c0.01-8.578,0.213-20.413-1.2-29.04c-1.927-1.193-4.069-2.171-6.24-3.12
	c-0.601-0.199-0.942-0.657-1.68-0.72c-2.524-1.478-5.336-2.664-8.16-3.84C44.811,53.52,44.73,53.52,44.65,53.52z M140.169,53.52
	c-1.935,0.305-3.51,0.969-5.039,1.68c-5.588,1.612-10.721,3.68-16.08,5.521c-0.51,0.771-0.907,1.651-1.68,2.159
	c-0.16,8.884-0.563,18.795,0,27.601c-0.269,0.659-2.287,0.418-1.681,1.2c3.832,0.469,7.659-2.014,11.761-3.601
	c4.029-1.56,10.569-3.345,13.199-5.52c0-0.08,0-0.16,0-0.24c1.586-1.091,0.96-7.926,0.96-11.04c0-4.699,0-8.638,0-11.76
	c0-1.601,0-3.2,0-4.8c0.17-0.891-0.409-1.03-0.239-1.921C140.757,52.827,140.531,53.24,140.169,53.52z M115.451,61.2
	c0.629,0.067,1.032-0.088,0.961-0.72c-0.308-0.014-0.334-0.309-0.721-0.24C115.615,60.564,115.349,60.698,115.451,61.2z
	 M89.05,99.12c-0.089,2.015,0.72,3.552-1.2,3.84c-1.812-2.504-1.2-6.436-1.2-10.08c0-6.589-0.098-13.141-0.24-18.479
	c-2.673-2.676-6.684-3.478-10.08-5.04c-3.495-1.608-6.797-3.901-10.8-4.561c-0.276-0.604-0.114-1.646-0.96-1.68
	c-0.115,3.364,0.057,7.078,0.24,9.601c0.475,6.54-1.277,14.456,0,19.68c0.605,2.478,3.522,2.652,6.24,3.84
	c4.213,1.839,6.51,3.218,10.32,5.04c1.663,0.795,3.459,2.326,5.04,2.64c4.237,0.843,6.835-1.362,9.599-2.398
	c1.922-0.722,4.044-1.3,6.24-2.16c2.174-0.853,10.885-3.365,12-5.04c1.621-2.434-0.207-7.696,0.48-11.04
	c-0.215-0.916,0.393-1.532,0-1.92c0.413-5.294,0.381-12.221,0-17.521c-0.993-0.032-0.376,1.544-1.682,1.2
	c-0.539-0.47-1.797-0.201-2.159,0.24c-0.282,0.038-0.681-0.042-0.72,0.24c-6.565,2.073-13.094,4.187-19.201,6.72
	c-0.788,0.092-1.058,0.702-1.68,0.96c0,0.16,0,0.32,0,0.48c-0.743,0.94-0.628,4.007-0.24,5.279c0,0.4,0,0.8,0,1.2
	c-0.398,0.414-0.398,2.466,0,2.88c0.143,0.767-0.45,0.742,0,1.2c-0.399,0.808-0.399,3.272,0,4.08c0,0.24,0,0.479,0,0.72
	c-0.399,0.966-0.399,3.594,0,4.562C88.751,94.937,89.238,97.14,89.05,99.12z M40.811,84c1.23,0.313,1.117-1.175,0-0.96
	C40.811,83.36,40.811,83.68,40.811,84z M142.81,84.96c1.295,0.361,1.078-1.39,0.24-1.439
	C143.056,84.085,142.637,84.227,142.81,84.96z M128.412,121.2c4.088-1.771,8.725-2.851,12-5.04c1.979-1.322,1.199-8.142,1.199-12.96
	c0-5.676-0.217-10.826-0.24-16.32c-3.721,0.782-7.688,2.657-12,4.32c-2.574,0.993-10.748,2.914-12,5.04
	c-1.711,2.904-0.492,9.558-0.24,12.96c0.537,7.229-1.889,10.563-0.959,16.56C120.361,124.942,124.388,122.941,128.412,121.2z
	 M116.169,95.521c0-0.32,0-0.642,0-0.96C115.248,94.371,115.248,95.709,116.169,95.521z M114.492,125.521
	c0.559-4.24,0.079-9.521,0.239-14.16c0.479,0.587,1.115,0.469,1.199-0.48c-0.162-0.768-1.091-0.159-1.199-0.479
	c-0.299-4.272,0.688-8.358,0-12.24c-7.169,3.313-16.588,6.451-24.241,10.08c-1.509,6.262,0.386,13.193-1.92,19.2
	c-1.677-5.7,0.602-14.888-1.44-19.2c-1.146-2.423-7.264-4.085-10.08-5.521c-4.463-2.274-7.743-4.348-12-5.521
	c-0.11,4.561,0.001,10.161,0.24,15.6c0.199,4.521-1.098,9.947,0.24,12.961c1.135,2.557,8.645,5.094,10.8,6.239
	c4.117,2.19,7.668,4.837,11.28,5.762c3.5,0.895,5.683-1.214,8.399-2.4c6.435-2.813,12.742-5.171,18.48-7.92
	c-1.063-0.353,0.37-0.636,0-1.681C114.492,125.681,114.492,125.601,114.492,125.521z M101.531,103.2
	c0.072-0.633-0.332-0.788-0.96-0.72C100.5,103.112,100.903,103.268,101.531,103.2z M88.09,106.32c0.679-0.041,1.646,0.206,1.68-0.48
	C89.251,105.35,88.278,105.758,88.09,106.32z M88.331,106.8c0,0.16,0,0.32,0,0.48c0.146,0.014,0.284,0.036,0.24,0.24
	c0.16,0,0.32,0,0.48,0c0.014-0.146,0.036-0.284,0.24-0.24c0-0.16,0-0.32,0-0.48c-0.146-0.014-0.284-0.034-0.24-0.238
	c-0.16,0-0.32,0-0.48,0C88.557,106.707,88.535,106.845,88.331,106.8z M142.332,117.84c1.487,0.229,1.334-1.521,0.479-1.92
	C142.511,116.425,141.71,117.149,142.332,117.84z M65.291,128.4c0.142-1.021-0.08-1.682-1.2-1.44
	C64.32,127.611,64.196,128.615,65.291,128.4z M115.93,128.88c1.144,0.264,0.979-0.779,0.96-1.68
	C115.971,127.328,115.587,128.135,115.93,128.88z"/>
<path fill="#402E2C" d="M52.331,45.84c1.1-0.739,2.581-1.099,4.08-1.439c0.451-0.458-0.142-0.435,0-1.2
	c2.41,1.431,5.53-1.314,8.4-1.68C60.939,43.249,56.501,44.411,52.331,45.84z"/>
<path fill="#402E2C" d="M63.13,60c-1.117,0.084-0.659-1.127-0.24-1.439c-6.69-2.989-13.349-6.012-19.92-9.12
	c0.971-1.029,2.537-1.463,4.08-1.92c-0.858,0.662-2.183,0.856-3.12,1.439c2.438,2.125,5.755,3.267,9.12,4.8
	c3.703,1.688,6.988,3.771,11.52,4.32c-1.979,0.355,0.815,1.603-1.2,1.92c0.877-0.433,0.702-0.936-0.24-1.2
	c-0.387-0.103-0.805,0.896-0.24,0.96C63.095,59.716,63.117,59.854,63.13,60z"/>
<path fill="#171115" d="M47.53,32.16c-0.045-0.194-0.241-0.239-0.24-0.479c3.45,0.988,9.935,3.935,14.4,5.76
	c1.725,0.705,6.863,2.146,4.08,3.84c-0.214,0.186-0.542,0.258-0.96,0.24c-2.87,0.365-5.99,3.11-8.4,1.68
	c-0.142,0.766,0.451,0.742,0,1.2c-1.499,0.341-2.98,0.7-4.08,1.439c-1.771,0.551-3.289,1.353-5.28,1.681
	c-1.543,0.457-3.109,0.891-4.08,1.92c6.571,3.108,13.229,6.131,19.92,9.12c-0.419,0.313-0.877,1.523,0.24,1.439
	c0.08,0,0.16,0,0.24,0c2.015-0.317-0.779-1.564,1.2-1.92c0.279-0.201,0.644-0.315,1.2-0.24c0.43,0.03,0.506-0.294,0.96-0.239
	c-0.493,0.627-1.524,0.716-2.4,0.96c0.056,1.222-0.058,2.085-0.96,2.64c-0.703-0.799-1.037-1.781-1.44-2.88
	c-6.422-2.538-12.445-5.476-18.48-8.4c-0.901-0.146-1.871,1.275-1.68-0.479c-1.108,0.012-0.873,1.368-2.16,1.2
	c-0.854-0.507-1.525-1.195-1.68-2.4c-6.148-2.332-11.191-5.769-17.76-7.68c-0.31,0.649-1.067,0.853-0.96,1.92
	c0.403,0.477,1.377,0.383,1.68,0.96c-0.08,0-0.16,0-0.24,0c-0.563-0.076-0.901-0.379-1.68-0.24c-0.08,0-0.16,0-0.24,0
	c0-0.4,0-0.8,0-1.2c0.665-0.774,0.913-1.967,2.4-1.92c5.709,2.852,11.595,5.524,17.52,8.16c-0.114,0.914,0.102,1.498,0.72,1.68
	c1.921,0.081,1.652-2.026,3.12-2.399c0.431,0.03,0.506-0.294,0.96-0.24c1.944,0.663,2.758-0.965,4.8-1.44
	c-0.127,0.193-0.25,0.391-0.24,0.721c1.099-0.518,0.826-1.2,2.16-1.681c0.771-0.269,1.423-0.656,2.4-0.72
	c0.874-0.179,0.286,0.659-0.24,0.48c0.882,0.314,2.773-0.422,3.6-0.96c-0.776-0.787-1.276,1.005-2.16,0.239
	c0.045-0.193,0.241-0.238,0.24-0.479c2.632-0.648,4.704-1.856,7.44-2.4c1.326-0.128,1.971-0.09,3.36-0.479
	c-0.106-0.935-1.098-0.983-1.68-1.44c-0.16,0-0.32,0-0.48,0C57.854,36.556,52.426,34.625,47.53,32.16z M62.65,38.16
	c-1.363-0.565-2.789-1.377-4.08-1.68c-1.354-0.318,0.709,0.714,0.72,0.72c2.442,1.252,5.341,1.957,6.72,3.12
	C65.534,38.833,63.841,38.654,62.65,38.16z"/>
<path fill="#402E2C" d="M50.17,44.88c-1.334,0.48-1.062,1.164-2.16,1.681c-0.01-0.331,0.113-0.527,0.24-0.721
	c-2.042,0.476-2.856,2.104-4.8,1.44C45.546,46.336,47.951,45.701,50.17,44.88z"/>
<path fill="#402E2C" d="M54.01,43.44c0.001,0.241-0.194,0.286-0.24,0.479c0.884,0.766,1.383-1.026,2.16-0.239
	c-0.826,0.538-2.717,1.274-3.6,0.96c0.526,0.179,1.114-0.659,0.24-0.48C52.891,43.76,53.638,43.787,54.01,43.44z"/>
<path fill="#402E2C" d="M63.13,39.12c0.583,0.457,1.574,0.506,1.68,1.44c-1.389,0.39-2.035,0.352-3.36,0.479
	c0.203-0.518,1.238-0.203,1.44-0.72c0.388,0.067,0.414-0.228,0.72-0.24C63.785,39.425,63.133,39.597,63.13,39.12z"/>
<path d="M66.01,40.32c-1.379-1.164-4.278-1.868-6.72-3.12c-0.011-0.006-2.074-1.038-0.72-0.72c1.292,0.303,2.717,1.114,4.08,1.68
	C63.841,38.654,65.534,38.833,66.01,40.32z"/>
<path d="M128.89,36.24c1.186,0.132-0.249,0.123-0.239,0.479c-3.006,0.915-5.942,1.898-8.159,3.601
	c-0.837,0.125-0.479,1.442-1.682,1.2c-0.561-0.682,1.02-0.758,0.48-2.16C122.394,38.224,125.724,37.314,128.89,36.24z"/>
<path fill="#974721" d="M92.411,32.64c0.959-0.236,1.44-0.236,2.399,0c0.309,0.013,0.333,0.308,0.721,0.239
	c0.387,0.333,1.237,0.203,1.439,0.721c-2.29-1.166-4.793-0.895-7.2,0C90.475,33.104,91.501,32.931,92.411,32.64z"/>
<path fill="#974721" d="M141.13,32.4c0.146,0.014,0.283,0.036,0.24,0.24c-5.729,3.069-13.332,4.27-18.961,7.439
	c3.172,1.458,6.342,2.767,9.84,4.08c2.737,1.028,7.582,3.775,10.32,3.84c3.262,0.078,7.1-2.438,10.319-3.6
	c3.577-1.29,6.974-2.283,10.319-3.601c0.002,0.241-0.193,0.286-0.239,0.48c-4.755,1.726-9.945,3.638-15.12,5.52
	c-4.587,1.668-6.037,1.729-10.801-0.239c-1.701-0.704-3.467-1.185-5.279-1.92c-1.811-0.735-9.573-3.412-9.6-4.561
	c-0.016-0.667,0.332-0.467,0.72-0.96c5.897-2.021,11.708-4.133,17.521-6.24C140.821,32.891,141.033,32.702,141.13,32.4z"/>
<path fill="#974721" d="M97.21,33.6c0.453-0.055,0.528,0.271,0.959,0.239c3.043,1.358,6.562,2.24,9.36,3.841
	C104.048,36.361,100.468,35.142,97.21,33.6z"/>
<path fill="#974721" d="M107.77,37.68c1.047,0.313,2.123,0.597,2.881,1.199C109.604,38.567,108.528,38.283,107.77,37.68z"/>
<path fill="#974721" d="M82.331,44.88c-2.868-1.132-5.5-2.5-8.64-3.359c-0.262-0.538-1.178-0.422-1.44-0.96
	c3.196,1.245,6.291,2.295,9.6,3.6c2.921,1.151,6.177,3.51,9.36,3.6c3.066,0.087,8.181-2.319,11.281-3.359
	c3.67-1.232,7.281-2.283,10.559-3.84c0.068,0.388-0.227,0.413-0.239,0.72c-2.875,1.034-6.438,2.159-10.08,3.36
	c-5.776,1.904-11.945,5.148-17.52,1.439C84.453,45.478,83.377,45.193,82.331,44.88z"/>
<path fill="#974721" d="M74.17,38.64c0.632-0.568,1.61-0.79,2.64-0.96C76.106,38.176,75.08,38.349,74.17,38.64z"/>
<path fill="#974721" d="M77.771,37.44c2.25-0.951,4.65-1.75,7.2-2.4C82.721,35.991,80.321,36.79,77.771,37.44z"/>
<path fill="#974721" d="M85.21,35.04c1.288-0.632,2.73-1.109,4.32-1.439C88.242,34.232,86.801,34.71,85.21,35.04z"/>
<path fill="#402E2C" d="M90.49,49.2c-0.88-1.369-3.519-1.834-5.52-2.64c-5.14-2.07-10.57-4.177-15.36-6.24
	c1.072-0.608,2.053-1.307,3.6-1.44c-0.218,0.422-0.841,0.439-1.2,0.721c-0.534,0.186-1.301,0.139-1.44,0.72
	c0.766,0.674,2.056,0.824,3.12,1.2c3.14,0.859,5.772,2.228,8.64,3.359c0.757,0.604,1.833,0.888,2.88,1.2
	c5.575,3.709,11.743,0.465,17.52-1.439c3.643-1.201,7.205-2.326,10.08-3.36c0.533-0.188,0.938-0.504,1.682-0.48
	c-0.32-0.561-1.072-0.688-1.682-0.96c-0.193-0.206-0.657-0.143-0.721-0.479c1.16,0.52,2.908,0.452,3.361,1.68
	c-8.225,2.177-15.717,5.084-23.521,7.681c0.615,0.359-0.382,2.736-1.44,1.199C92.273,51.118,92.132,48.057,90.49,49.2z"/>
<path fill="#402E2C" d="M142.089,50.4c-0.523-0.035-0.514-0.604-0.479-1.2c-6.619-3.14-13.559-5.961-20.88-8.4
	c0.595-0.687,1.241-1.318,2.159-1.68c-0.387,0.493-0.734,0.293-0.721,0.96c0.026,1.148,7.791,3.825,9.601,4.561
	c1.813,0.735,3.578,1.216,5.28,1.92c4.763,1.969,6.213,1.908,10.8,0.239c5.175-1.882,10.366-3.794,15.12-5.52
	c1.463-0.688,2.876,0.171,3.359,1.2c-0.545-0.333-0.93-0.83-1.439-1.2c-7.452,2.387-14.501,5.179-21.84,7.68
	c0.035,0.444,0.813,0.147,0.959,0.48c-0.346,0.453-0.535,1.063-1.438,0.96c0.065-0.495,1.063-0.058,0.96-0.72
	c-0.203-0.357-0.771-0.348-1.199-0.48C141.72,49.225,141.763,50.094,142.089,50.4z"/>
<path fill="#666773" d="M73.69,41.52c-1.064-0.376-2.354-0.526-3.12-1.2c0.139-0.582,0.906-0.534,1.44-0.72
	c-0.102,0.501,0.165,0.635,0.24,0.96C72.512,41.098,73.429,40.982,73.69,41.52z"/>
<path fill="#666773" d="M82.331,44.88c1.046,0.313,2.123,0.599,2.88,1.2C84.164,45.767,83.088,45.482,82.331,44.88z"/>
<path fill="#666773" d="M112.81,39.84c0.607,0.272,1.361,0.399,1.682,0.96c-0.744-0.023-1.146,0.293-1.682,0.48
	c0.014-0.307,0.309-0.333,0.24-0.72C113.119,40.172,112.824,40.147,112.81,39.84z"/>
<path fill="#171115" d="M142.571,50.4c0.903,0.104,1.093-0.507,1.438-0.96c-0.146-0.333-0.924-0.036-0.959-0.48
	c7.339-2.501,14.388-5.293,21.84-7.68c0.511,0.37,0.895,0.866,1.439,1.2c0,0.08,0,0.16,0,0.24c-0.068,0.649,0.338,1.776-0.72,1.439
	c0.021-0.378,0.612-0.188,0.479-0.72c-0.221-2.963-3.434-1.205-4.801-0.721c-5.766,2.048-11.744,4.304-17.039,6
	c0.679,2.384-3.695,2.363-3.36,0.24c-5.099-1.973-10.558-4.271-15.601-6.24c-1.679-0.654-3.481-1.95-5.279-1.199
	c2.893,2.02,7.004,3.289,10.8,4.8c3.583,1.426,8.575,2.291,9.841,5.28c-0.533-0.347-1.156-0.604-2.16-0.48
	c-7.013,2.588-14.186,5.014-21.359,7.44c-0.297,0.417,0.229,1.639-1.2,1.439c0-0.08,0-0.16,0-0.24c0.159,0,0.319,0,0.479,0
	c0.194-0.046,0.239-0.24,0.479-0.239c0.073-0.634-0.501-0.619-0.96-0.721c0.203-0.518,1.236-0.202,1.439-0.72
	c6.9-2.14,13.43-4.65,20.16-6.96c0.194-0.045,0.239-0.241,0.479-0.24c0.16,0,0.32,0,0.48,0c0.479,0,0.961,0,1.439,0
	c0.4-0.494-1.145-1.085-1.68-1.439c-6.512-2.369-12.761-5-19.201-7.44c-0.234-0.324-0.641-0.479-0.959-0.72
	c0.304-0.483,1.766-1.313,0.479-1.92c7.341-2.5,14.368-5.313,22.319-7.2c0.133,0.532-0.458,0.342-0.479,0.72
	c-5.814,2.107-11.623,4.219-17.521,6.24c-0.918,0.361-1.565,0.994-2.159,1.68c7.321,2.438,14.26,5.261,20.88,8.4
	c-0.035,0.595-0.045,1.165,0.479,1.2C142.25,50.4,142.412,50.4,142.571,50.4z M119.291,39.36c0.539,1.402-1.041,1.479-0.479,2.16
	c1.202,0.242,0.845-1.075,1.681-1.2c2.219-1.702,5.154-2.687,8.16-3.601c-0.01-0.356,1.426-0.348,0.239-0.479
	C125.724,37.314,122.394,38.224,119.291,39.36z"/>
<path fill="#402E2C" d="M22.81,40.32c5.115,2.485,10.39,4.81,15.6,7.2c0,0.08,0,0.16,0,0.239c0.516,0.445,1.758,0.162,2.64,0.24
	c0.307-0.333,1.133-0.146,1.44-0.479c-1.468,0.373-1.199,2.48-3.12,2.399c-0.618-0.182-0.833-0.766-0.72-1.68
	c-5.925-2.636-11.811-5.31-17.52-8.16C21.45,39.471,22.196,40.432,22.81,40.32z M40.331,49.44c0.139-0.859-0.71-0.729-1.44-0.721
	C38.833,49.527,39.782,49.96,40.331,49.44z"/>
<path fill="#171115" d="M66.97,57.6c0.407-0.554,1.603-0.318,1.92-0.96c1.011-0.35,1.906-0.814,3.12-0.96
	c0.68-0.04,1-0.44,1.68-0.48C71.708,56.258,69.326,56.915,66.97,57.6z"/>
<path fill="#402E2C" d="M161.531,45.6c1.18-0.66,2.424-1.258,4.08-1.44c1.059,0.337,0.65-0.79,0.721-1.44
	c0.537,0.104,0.098,1.184,0.239,1.681c-0.239,0-0.479,0-0.721,0c-1.608,0.149-2.544,0.976-4.079,1.2
	C161.691,45.6,161.611,45.6,161.531,45.6z"/>
<path fill="#171115" d="M151.21,111.36c-2.537,1.019-5.162,3.111-8.4,2.64c0.4-9.72-0.318-19.945,1.921-28.319
	c4.937-2.493,10.703-4.725,16.319-6.96c1.166-0.466,5.132-1.354,5.279-2.641c0.125-1.08-1.305-1.834-1.92-1.92
	c-1.209-0.169-4.035,1.451-5.279,1.92c-1.918,0.724-3.848,1.287-5.521,1.92c-3.862,1.463-7.465,3.743-10.801,3.12
	c0.213-0.587,1.341-0.26,1.2-1.2c-0.525-4.273-0.229-9.465,0-14.64c0.199-4.541-0.766-9.553,0.24-12.24
	c1.021-2.729,6.629-3.812,9.359-4.8c2.557-0.925,5.102-1.807,7.92-2.64c0.08,0,0.16,0,0.24,0c-2.667,1.13-5.672,2.267-8.641,3.359
	c-2.912,1.072-6.453,1.354-8.16,3.84c-0.547,0.333-0.09,1.671-0.239,2.4c0,4.64,0,9.28,0,13.92c-0.399,2.722-0.399,7.119,0,9.84
	c0,0.08,0,0.16,0,0.24c-0.063,0.703,0.542,0.737,0.479,1.44c4.683-1.085,9.656-3.511,14.399-5.28c2.047-0.764,4.411-1.957,5.761-1.2
	c0.534,0.505,1.28,0.799,1.199,1.92c-0.206,2.034-3.098,1.382-4.08,2.641c-0.08,0-0.16,0-0.24,0
	c-1.857,0.621-3.709,1.251-5.279,2.159c-3.067,1.252-6.143,2.497-9.359,3.601c-3.561,1.165-2.355,9.357-2.641,15.6
	c-0.116,2.558,0,5.192,0,7.44c0,2.41,0.521,4.773-0.479,6.238C146.864,113.094,148.983,112.172,151.21,111.36z"/>
<path fill="#171115" d="M158.169,108.48c-2.015,1.186-4.451,1.948-6.719,2.88c0.064-0.494,0.893-0.227,0.959-0.72
	c1.848-0.714,3.455-1.665,5.521-2.16C158.009,108.48,158.089,108.48,158.169,108.48z"/>
<path fill="#171115" d="M162.009,106.8c0.408-0.473,1.117-0.644,1.921-0.72c0.875,0.646,1.647,1.393,2.159,2.4c0,0.08,0,0.16,0,0.24
	c-0.021,0.615-0.937,0.343-0.959,0.96c-6.81,2.791-13.853,5.348-20.16,8.64c-0.512,3.168-0.114,7.245-0.239,10.8
	c0.157,1.763-0.317,4.157,0.239,5.521c0,0.08,0,0.158,0,0.238c-0.396,0.26-0.396,2.143,0,2.4c0,2.24,0,4.479,0,6.72
	c0.216,0.425,0.58,0.701,0.721,1.2c5.85-1.83,10.693-4.665,16.318-6.72c-6.69,3.111-13.12,7.617-21.119,8.64
	c0.552-8.488,0.087-17.993,0.24-26.88c-3.073,0.606-5.463,1.898-7.92,3.12c-3.756,1.764-7.869,3.171-11.521,5.04
	c-0.045-0.204,0.093-0.228,0.239-0.24c0.193-0.127,0.39-0.25,0.721-0.24c-1.121-0.154-2.977,1.021-4.08,1.682
	c-0.797,2.645-0.596,7.563-0.24,10.56c0,0.08,0,0.16,0,0.24c-0.547,5.759,0.072,11.554,0.24,17.04
	c7.299-2.541,13.454-6.228,20.641-8.88c-4.651,2.783-10.871,5.157-16.561,7.68c-2.896,1.283-5.482,3.197-8.4,1.92
	c0.233-0.007,0.188-0.294,0.24-0.479c0.457,0.102,0.434,0.686,1.2,0.479c0.924-7.865-0.188-18.486,0-28.32
	c8.569-3.351,17.774-7.343,25.681-10.56c0.213,7.056-0.272,16.89,0,24.479c0.029,0.836-0.611,2.619,0.719,2.881
	c1.435-0.314,0.75-2.522,0.721-3.842c-0.146-6.672-0.378-15.747-0.239-23.52c6.665-4.694,16.316-6.403,23.04-11.04
	c-0.109-1.011-1.136-1.104-1.439-1.92c-0.764,0.036-1.057,0.544-1.92,0.479C162.169,106.8,162.089,106.8,162.009,106.8z"/>
<path fill="#171115" d="M91.931,140.641c7.046-3.595,15.089-6.191,22.32-9.602c-0.006,0.565,0.412,0.707,0.24,1.44
	c-0.177-0.327-0.973-1.238-1.441-0.48C106.046,134.917,99.042,137.834,91.931,140.641z"/>
<path fill="#171115" d="M37.69,54c1.186,9.676,0.194,18.961,2.4,26.88c-7.132-1.748-11.729-6.03-18.48-8.159
	c-0.428,0.531-0.945,0.975-0.72,2.159c4.458,3.135,12.583,5.578,17.28,8.88c2.584,1.816,2.546,4.706,3.36,8.16
	c0.278-2.123-0.582-5.382,0.48-6.72c3.628,1.397,6.554,3.361,10.32,5.28c2.549,1.299,8.844,3.188,10.08,5.76
	c0.744,1.549,0.375,3.908,0.48,6.24c0.244,5.363,0.296,13.742,0.96,18.72c0.182,1.363,1.28,2.286,0.48,3.84
	c-7.884-2.355-13.318-7.162-20.64-10.08c-0.361-0.679-1.058-1.021-1.2-1.92c-4.276,0.021-7.573-2.468-11.04-4.318
	c-2.824-1.511-5.388-3.951-8.4-3.602c-0.628,1.816,1.749,2.699,2.88,3.36c5.178,3.022,11.873,5.627,15.6,9.358
	c1.053,0.253,0.789-0.812,1.68-0.72c6.893,4.627,14.884,8.156,21.84,12.72c0.6,9.115-0.534,19.902,0.96,27.602
	c0.423-8.589-0.667-19.008-0.24-27.602c7.09,3.392,13.429,7.531,20.64,10.802c0.78,3.56,3.903,1.988,5.28,0
	c-0.53,0.676-1.661,2.01-0.96,3.119c0,0.079,0,0.159,0,0.239c-0.077,4.95-0.24,10.604-0.24,16.08c0,3.688,0.406,6.976,0.24,9.602
	c3.137-0.623,5.301-2.22,8.16-3.12c-3.227,1.494-6.434,4.284-10.8,3.84c-1.303-2.153,0.168-9.484-0.72-13.44c0-1.12,0-2.238,0-3.358
	c-0.16-3.521,0.319-7.681-0.24-10.802c-0.229-0.489-0.49-0.948-0.72-1.438c-6.064-3.456-12.313-6.728-18.48-10.08
	c-0.776-0.264-1.659-0.421-2.16-0.96c0.348,7.411,0.345,15.175,0.72,22.56c0,0.16,0,0.32,0,0.48c-0.404,0.893,0.257,2.775,0,4.32
	c-0.816,0.389-1.696-0.091-2.64-0.24c-0.856-4.428-0.356-9.474-0.72-13.92c-0.382-4.677,0.821-10.146-0.24-13.682
	c-0.668-2.227-7.571-5.111-9.6-6.238c-3.795-2.11-6.792-3.836-10.08-5.762c-0.728,2.154-0.638,6.4-0.24,8.882
	c0,0.158,0,0.318,0,0.479c-0.207,5.968,0.354,12.446,0.24,17.521c-2.465,0.079-1.087-2.242-1.92-3.842c0-0.64,0-1.278,0-1.92
	c0.177-2.435-0.136-4.668-0.24-6.96c-0.22-4.843,0.896-10.954-0.72-14.398c-0.858-1.831-7.025-4.51-8.88-5.521
	c-3.434-1.873-6.264-3.215-8.88-5.28c-0.542-0.904,0.482-1.987,0.96-2.64c4.36,1.96,8.352,4.288,12.48,6.48
	c1.133,0.945,2.437,1.723,4.32,1.92c0.064-1.907-0.038-5.722-0.48-7.92c0-0.642,0-1.28,0-1.922c0.066-3.604-0.238-6.896-0.48-10.56
	c-0.155-2.352,0.11-4.951-0.48-6.479c-0.987-2.561-6.59-4.346-8.88-5.521c-3.486-1.79-6.617-3.312-9.36-5.04c0-0.4,0-0.8,0-1.2
	c-0.208-0.928,0.586-0.854,0.72-1.439c0.08,0,0.16,0,0.24,0c6.141,2.02,10.666,5.653,16.8,7.68c-0.107-0.63,0.669-3.184,0-4.32
	c0-0.479,0-0.96,0-1.439c-0.157-1.523,0.316-3.677-0.24-4.8c0-0.16,0-0.32,0-0.48c-0.158-1.603,0.316-3.837-0.24-5.04
	c0-0.479,0-0.96,0-1.439c-0.153-0.888,0.311-2.392-0.24-2.881c0-0.64,0-1.279,0-1.92C37.69,56.56,37.69,55.28,37.69,54z
	 M43.93,86.88c0-0.08,0-0.159,0-0.239c-1.059,0.099-1.058-0.862-1.92-0.96c-0.194,6.306,0.221,13.142,0.48,19.68
	c0.099,2.479-0.581,5.893,0.24,7.92c0.939,2.322,7.707,4.873,9.84,6c3.919,2.07,6.882,3.979,10.8,5.28
	c-0.484-0.813-0.564-1.115-0.72-2.16c-1.298-8.713,0.641-17.904-1.2-26.642c-0.49-0.229-0.95-0.489-1.44-0.72
	c-0.33,0.011-0.527-0.113-0.72-0.24c-2.013-1.507-4.486-2.554-6.96-3.6c-0.241,0.001-0.286-0.194-0.48-0.24
	c-1.242-0.998-2.7-1.779-4.32-2.399c-0.08,0-0.16,0-0.24,0c-0.757-0.844-1.964-1.236-3.12-1.681
	C44.09,86.88,44.01,86.88,43.93,86.88z M40.57,100.08c1.273,0.324,0.365,0.866,0,1.44c0.36,0.278,0.587,0.691,1.2,0.72
	c0.204-2.858,0.168-7.011-0.48-10.08C40.601,94.272,42.419,99.143,40.57,100.08z M42.01,109.681
	c-0.146-0.574,0.301-1.742-0.24-1.922C41.785,108.481,41.13,109.178,42.01,109.681z"/>
<path fill="#171115" d="M29.291,47.28c2.914,1.966,8.002,1.757,8.4,6.24c-0.08,0-0.16,0-0.24,0c-0.304-3.937-4.774-3.706-7.2-5.521
	C30.185,47.506,29.356,47.774,29.291,47.28z"/>
<path fill="#171115" d="M25.21,45.36c1.094,0.346,2.055,0.825,2.88,1.439c-0.08,0-0.16,0-0.24,0c-0.597,0.037-0.743-0.377-1.2-0.479
	C26.389,45.782,25.472,45.898,25.21,45.36z"/>
<path fill="#171115" d="M23.05,44.64c-0.262-0.538-1.178-0.423-1.44-0.96c0.934,0.266,1.736,0.663,2.4,1.199c-0.08,0-0.16,0-0.24,0
	C23.44,44.891,23.243,44.767,23.05,44.64z"/>
<path fill="#D9D5D9" d="M73.21,54.96c-3.643,0.467-6.172,3.049-9.6,2.88c-2.841-0.14-6.892-2.739-9.84-4.08
	c-3.461-1.572-6.853-2.896-9.12-4.8c3.491-1.514,7.318-2.75,11.28-4.08c3.647-1.224,8.237-3.702,11.76-3.6
	c2.797,0.081,6.089,2.22,8.64,3.36c2.793,1.248,5.345,2.527,8.16,3.6c0.08,0,0.16,0,0.24,0c0.491,0.789,2.05,0.51,2.16,1.68
	c-2.855,1.466-6.502,2.139-9.36,3.601c-0.08,0-0.16,0-0.24,0c-1.3,0.46-2.839,0.681-3.84,1.439
	C73.371,54.96,73.291,54.96,73.21,54.96z M73.93,44.16c-1.992-0.858-4.365-2.573-6.24-2.64c-1.542-0.056-3.83,1.031-5.76,1.68
	c-5.82,1.954-11.373,3.891-16.8,5.76c2.667,1.891,5.757,3.039,9.12,4.561c2.736,1.237,6.777,4.074,9.84,4.08
	c1.638,0.003,3.65-1.283,5.52-1.92c5.81-1.979,11.392-3.716,16.8-5.761C82.67,47.272,78.25,46.021,73.93,44.16z"/>
<path fill="#666773" d="M52.331,45.84c4.171-1.429,8.609-2.591,12.48-4.319c0.418,0.018,0.746-0.055,0.96-0.24
	c0.842-0.119,1.562-0.358,2.64-0.24c5.384,2.376,10.956,4.564,16.08,7.2c-2.814-1.072-5.367-2.352-8.16-3.6
	c-2.551-1.141-5.843-3.279-8.64-3.36c-3.523-0.104-8.113,2.375-11.76,3.6c-3.962,1.331-7.789,2.566-11.28,4.08
	c2.267,1.904,5.659,3.228,9.12,4.8c2.948,1.341,6.999,3.94,9.84,4.08c3.428,0.168,5.957-2.414,9.6-2.88
	c-0.153,0.487-1.122,0.158-1.2,0.721c-1.214,0.146-2.109,0.61-3.12,0.96c-1.064,0.376-2.354,0.525-3.12,1.199
	c-0.557-0.076-0.921,0.039-1.2,0.24c-4.532-0.549-7.817-2.631-11.52-4.32c-3.365-1.534-6.683-2.675-9.12-4.8
	c0.937-0.583,2.262-0.777,3.12-1.439C49.042,47.191,50.56,46.39,52.331,45.84z"/>
<path fill="#666773" d="M20.65,70.56c5.552,2.928,10.823,6.137,17.28,8.16c0,0.079,0,0.159,0,0.239s0,0.16,0,0.24
	c-1.143,0.43-2.608-0.618-3.84-1.2c-1.273-0.601-2.691-1.236-4.08-1.92c-2.848-1.399-6.514-4.088-8.4-3.6c-0.08,0-0.16,0-0.24,0
	c-0.134,0.586-0.928,0.512-0.72,1.439c-0.667,0.529,0.034,1.71,0,2.4c0.067,0.388-0.227,0.413-0.24,0.72
	c-0.792-1.916,0.127-4.189,0.96-5.28C21.229,71.26,20.866,70.984,20.65,70.56z"/>
<path fill="#666773" d="M147.611,84.48c3.217-1.104,6.292-2.349,9.359-3.601c1.857-0.622,3.709-1.251,5.279-2.159
	c0.08,0,0.16,0,0.24,0c1.453-0.628,3.282-0.878,4.32-1.921c0.021-0.341,0.039-0.68-0.24-0.72c0.081-1.121-0.665-1.415-1.199-1.92
	c-0.188-0.213-0.259-0.542-0.24-0.96c0.604-0.596,1.492-0.907,1.439-2.16c0-0.08,0-0.16,0-0.24c0.922,1.252-0.816,1.896-0.96,2.881
	c0.47,1.211,1.654,1.704,1.438,3.6c-6.735,3.343-15.289,4.871-21.119,9.12c-0.043,8.438-0.631,17.604,0,25.92
	c6.268-1.257,12.285-4.833,18.48-6.96c3.215,2.446,2.159,9.352,2.159,16.56c0,5.339,1.154,12.619-0.721,15.602
	c-1.185,1.883-7.755,4.299-10.319,5.52c-4.973,2.368-8.43,4.111-13.92,5.28c-3.146,2.438-7.82,4.521-12.721,6.72
	c-4.801,2.155-8.417,4.28-13.92,5.04c-3.625,2.712-8.442,4.829-13.92,7.2c-3.658,1.584-8.778,4.562-12.24,4.32
	c-3.253-0.229-7.366-3.505-10.56-5.28c-3.458-1.923-7.806-3.497-10.08-5.521c-0.499-0.443-1.239-0.975-1.44-1.921
	c-5.189-0.604-8.192-3.538-12.48-6c-3.961-2.272-8.056-3.539-10.08-6.72c-4.441-1.302-8.235-3.77-12-6
	c-2.88-1.706-6.146-3.1-7.92-5.76c0.337-0.063,0.273-0.526,0.48-0.72c0.932,0.588,1.639,1.399,2.4,2.158
	c0.698,1.129,4.723,3.431,7.92,5.28c2.939,1.702,6.686,4.257,8.88,3.84c0.16,0,0.32,0,0.48,0c0.135,0.347,0.375,0.586,0.72,0.722
	c0.127,0.191,0.25,0.39,0.24,0.72c1.53,2.347,6.084,3.977,9.6,6c4.138,2.382,6.928,5.206,11.76,6c2.381,2.851,7.865,5.031,11.76,7.2
	c3.398,1.892,7.493,5.461,10.8,5.52c2.846,0.051,8.947-3.537,11.76-4.8c5.469-2.455,10.39-3.912,13.92-7.44
	c0.929-0.128,1.172,0.43,2.16,0.24c8.072-3.688,16.97-6.551,24-11.28c4.929-0.918,8.724-2.896,13.439-5.04
	c4.072-1.851,8.303-3.46,10.561-6c0.217-0.423,0.537-0.742,0.959-0.96c0.394-8.25,0.406-18.15,0-26.398
	c0.307-0.056,0.314-0.717,0-0.72c0-0.08,0-0.16,0-0.24c0.043-1.481-1.44-1.438-1.68-2.642c-0.279-0.039-0.427,0.055-0.479,0.24
	c-0.804,0.076-1.513,0.247-1.921,0.72c-1.522,0.397-2.865,0.976-4.079,1.682c-2.063,0.495-3.673,1.446-5.521,2.16
	c-2.377,0.583-3.849,2.069-6.72,2.158c-0.911-8.14-0.308-18.846,0.239-27.119C146.428,85.218,147.093,84.923,147.611,84.48z"/>
<path fill="#666773" d="M97.451,50.88c-1.102-0.258-1.947-0.771-3.119-0.96c5.153-2.226,11.799-4.397,18-6.479
	c2.125-0.713,4.988-2.035,6.239-1.44c0,0.08,0,0.16,0,0.24c-7.755,2.005-14.995,4.525-21.841,7.44
	c0.046,0.193,0.241,0.238,0.24,0.479C97.055,50.475,97.393,50.538,97.451,50.88z"/>
<path fill="#402E2C" d="M115.21,60c-0.424-0.507-0.541-0.709-0.24-1.439c-7.352-2.729-14.153-6.008-21.6-8.641
	c7.776-3.262,16.519-5.561,24.479-8.64c-0.409-0.82-0.908-1.017-0.479-2.16c-6.688-2.513-13.695-4.706-19.681-7.92
	c0.388-0.333,0.761-0.68,1.199-0.96c-0.003,0.477-0.654,0.305-0.479,0.96c4.473,2.169,9.391,4.141,14.16,6
	c4.71,1.835,6.11,1.438,10.561,0c5.535-1.79,10.772-3.348,15.84-5.28c0.599-0.478,1.912-0.134,2.16,0.48
	c-0.1,0.302-0.311,0.491-0.721,0.479c0.021-0.378,0.612-0.188,0.479-0.72c-7.951,1.888-14.979,4.7-22.319,7.2
	c1.285,0.608-0.177,1.438-0.48,1.92c0.32,0.24,0.726,0.396,0.961,0.72c-0.16,0-0.319,0-0.479,0c-1.251-0.595-4.114,0.728-6.239,1.44
	c-6.201,2.082-12.847,4.254-18,6.479c1.172,0.188,2.019,0.702,3.119,0.96c0.08,0,0.16,0,0.24,0c1.09,0.99,2.84,1.32,4.318,1.92
	c0.08,0,0.16,0,0.24,0c2.978,1.584,7.146,3.255,10.08,4.08c0.08,0,0.16,0,0.24,0c0.401,0.872,2.184,1.397,2.881,1.2
	c0.639,0,1.279,0,1.92,0c-0.203,0.519-1.238,0.203-1.44,0.72c0.459,0.102,1.032,0.088,0.96,0.721c-0.24,0-0.285,0.193-0.479,0.239
	c0.574-0.703-0.789-1.147-1.44-0.72c-0.072,0.632,0.333,0.788,0.96,0.72c0,0.08,0,0.16,0,0.24C115.691,60,115.451,60,115.21,60z
	 M118.81,40.32c0.111-0.752-0.604-0.677-0.96-0.96c-0.003,0.477-0.654,0.305-0.479,0.96C117.677,40.648,118.503,40.648,118.81,40.32
	z"/>
<path fill="#015FAF" d="M118.571,42.24c0-0.08,0-0.16,0-0.24c0.16,0,0.319,0,0.479,0c6.439,2.44,12.688,5.071,19.199,7.44
	c0,0.08,0,0.16,0,0.24c0,0.079,0,0.159,0,0.239C131.807,47.244,125.292,44.638,118.571,42.24z"/>
<path fill="#015FAF" d="M137.531,51.12c-6.73,2.31-13.26,4.82-20.16,6.96c-0.64,0-1.279,0-1.92,0c-0.772-0.586-2.091-0.629-2.88-1.2
	c-0.079,0-0.159,0-0.239,0c-3.142-1.58-6.691-2.749-10.08-4.08c-0.08,0-0.16,0-0.24,0c-1.219-0.86-2.743-1.417-4.319-1.92
	c-0.08,0-0.159,0-0.239,0c-0.059-0.342-0.396-0.404-0.48-0.72c3.429,1.434,6.494,2.491,9.84,3.84
	c3.016,1.216,6.488,3.699,9.841,3.84c3.093,0.13,7.341-2.276,10.56-3.359C130.658,53.321,134.662,51.445,137.531,51.12z"/>
<path fill="#974721" d="M37.93,78.72c0.203-3.506-0.039-10.552-0.24-15.12c-0.162-3.675,0.318-8.604-0.72-11.28
	c-0.81-2.088-5.975-3.66-8.4-4.8c-3.288-1.546-7.603-4.183-9.84-3.601c0.127-0.192,0.25-0.39,0.24-0.72
	c0.779-0.139,1.117,0.164,1.68,0.24c0.664,0.536,1.466,0.934,2.4,1.2c0.193,0.127,0.39,0.25,0.72,0.239
	c0.825,0.615,1.786,1.095,2.88,1.44c0.457,0.103,0.603,0.517,1.2,0.479c0.664,0.536,1.466,0.935,2.4,1.2
	c2.426,1.814,6.896,1.584,7.2,5.521c0.157,1.362-0.315,3.355,0.24,4.319c0,0.641,0,1.28,0,1.92c0.153,0.888-0.311,2.392,0.24,2.881
	c0,0.479,0,0.96,0,1.439c0.158,1.604-0.316,3.837,0.24,5.04c0,0.16,0,0.32,0,0.48c0.157,1.522-0.316,3.676,0.24,4.8
	c0,0.479,0,0.96,0,1.439c-0.183,1.018,0.442,2.843-0.48,3.12C37.93,78.88,37.93,78.8,37.93,78.72z"/>
<path fill="#402E2C" d="M23.05,44.64c-0.934-0.267-1.736-0.664-2.4-1.2c0.08,0,0.16,0,0.24,0c0.331-0.01,0.527,0.112,0.72,0.24
	C21.872,44.218,22.789,44.102,23.05,44.64z"/>
<path fill="#402E2C" d="M23.771,44.88c0.08,0,0.16,0,0.24,0c0.597-0.037,0.743,0.377,1.2,0.48c0.262,0.539,1.178,0.422,1.44,0.96
	C25.556,45.974,24.595,45.495,23.771,44.88z"/>
<path fill="#974721" d="M144.97,52.8c1.707-2.486,5.248-2.769,8.16-3.84c2.969-1.093,5.974-2.229,8.641-3.359
	c1.535-0.226,2.471-1.051,4.079-1.2c0,0.08,0,0.16,0,0.24c-3.511,1.09-6.401,2.213-10.319,3.6c-2.019,0.714-9.045,2.291-10.08,4.08
	c-0.953,1.646-0.449,5.215-0.479,7.439c-0.072,5.439-0.134,13.74,0.239,19.921c2.916-0.076,6.429-1.765,10.08-3.12
	c4.264-1.583,9.424-3,11.28-5.521c0.054,1.253-0.836,1.564-1.44,2.16c-6.783,2.096-12.572,5.186-19.68,6.96
	c-0.24-0.32-0.396-0.724-0.72-0.96c0-0.08,0-0.16,0-0.24c0-3.279,0-6.56,0-9.84c0-4.64,0-9.28,0-13.92
	C145.278,54.867,144.82,53.53,144.97,52.8z"/>
<path fill="#402E2C" d="M30.25,48c-0.934-0.266-1.736-0.664-2.4-1.2c0.08,0,0.16,0,0.24,0c0.597-0.036,0.743,0.377,1.2,0.48
	C29.356,47.774,30.185,47.506,30.25,48z"/>
<path fill="#666773" d="M77.53,53.52c2.858-1.462,6.505-2.135,9.36-3.601c-0.11-1.169-1.669-0.891-2.16-1.68
	c0.847,0.033,1.073,0.687,1.92,0.72c0.402,0.632,0.978,0.81,0.24,1.44c-2.678,0.763-5.121,1.76-7.68,2.64
	C78.531,53.08,78.21,53.48,77.53,53.52z"/>
<path fill="#402E2C" d="M86.891,50.4c0.738-0.631,0.162-0.809-0.24-1.44c0.452,0.429,1.111,0.649,1.44,1.2
	C87.412,49.962,87.469,50.499,86.891,50.4z"/>
<path fill="#666773" d="M97.691,50.88c1.576,0.504,3.102,1.06,4.318,1.92C100.531,52.2,98.781,51.87,97.691,50.88z"/>
<path fill="#666773" d="M102.25,52.8c3.39,1.331,6.939,2.5,10.08,4.08C109.396,56.054,105.227,54.384,102.25,52.8z"/>
<path fill="#402E2C" d="M138.25,49.68c0-0.08,0-0.16,0-0.24c0.537,0.354,2.08,0.945,1.681,1.439c-0.479,0-0.96,0-1.438,0
	C139.016,50.378,138.985,49.978,138.25,49.68z"/>
<path fill="#171115" d="M88.331,71.52c-0.204,0.704-0.773-0.145-1.2,0c0-0.32,0-0.641,0-0.96c-6.215-3.625-13.494-6.187-19.92-9.601
	c-0.563,0.077-0.901,0.379-1.68,0.24c0.349-1.731,2.34-1.82,3.84-2.4c-0.003,0.317-0.421,0.22-0.48,0.48
	c-0.675-0.035-0.692,0.587-0.72,1.2c-0.08,0-0.16,0-0.24,0c-0.465,0.095-0.351-1.093,0.24-0.721
	c-0.366-0.427-1.712,0.194-1.92,0.721c4.94,1.976,10.869,4.944,16.32,7.2c0.08,0,0.16,0,0.24,0c0.825,0.614,1.786,1.094,2.88,1.439
	c0.08,0,0.16,0,0.24,0c0.498,0.542,1.331,0.75,2.16,0.96c-0.07,0.489-0.649,0.471-0.72,0.96
	C87.428,71.462,87.783,71.587,88.331,71.52z"/>
<path fill="#171115" d="M88.811,71.28c0.33,0.01,0.527-0.113,0.72-0.24c0.043-0.522-0.196-0.764-0.72-0.72
	c7.78-3.1,15.761-5.999,24-8.64c-0.147-0.731-1.29-0.47-1.438-1.2c0.756,0.283,1.332,0.747,1.92,1.2
	c-7.834,2.726-15.726,5.396-23.28,8.399c-0.443,0.518-0.222,1.698-1.44,1.44c0-0.08,0-0.16,0-0.24
	C88.65,71.28,88.73,71.28,88.811,71.28z"/>
<path fill="#171115" d="M106.571,58.32c1.155,0.125,1.884,0.677,2.64,1.2c-0.16,0-0.319,0-0.479,0c-0.08,0-0.16,0-0.24,0
	C108.055,58.915,107.005,58.925,106.571,58.32z"/>
<path fill="#171115" d="M103.93,57.12c0.985,0.054,1.571,0.508,2.159,0.96c-0.159,0-0.319,0-0.479,0c-0.08,0-0.16,0-0.24,0
	C105.109,57.542,104.192,57.658,103.93,57.12z"/>
<path fill="#171115" d="M100.81,55.68c1.156,0.125,1.884,0.677,2.641,1.199c-0.16,0-0.32,0-0.479,0c-0.08,0-0.16,0-0.24,0
	C102.294,56.275,101.246,56.285,100.81,55.68z"/>
<path fill="#171115" d="M81.371,54.719c3.782-0.881,6.875-3.657,10.32-3.359c1.993,0.172,5.395,2.969,7.439,3.6
	c-1.139,0.1-1.26-0.818-2.399-0.72c-1.037-0.803-2.429-1.251-3.601-1.92c-0.139-0.751-2.002-1.023-2.639-0.48
	C87.373,52.723,84.583,53.932,81.371,54.719z"/>
<path fill="#402E2C" d="M90.49,51.84c0.637-0.543,2.501-0.271,2.64,0.48c-0.213-0.148-0.43-0.29-0.48,0
	c-0.146-0.014-0.284-0.036-0.24-0.24C92.232,51.539,91.064,51.986,90.49,51.84z"/>
<path fill="#974721" d="M92.65,52.32c0.051-0.29,0.268-0.148,0.48,0c1.17,0.668,2.563,1.117,3.6,1.92
	C95.208,53.763,94.041,52.931,92.65,52.32z"/>
<path fill="#FD6A50" d="M96.73,54.24c1.141-0.099,1.262,0.819,2.4,0.72c0.807-0.006,1.27,0.331,1.68,0.721
	c-0.95,0.204,1.309,0.995,1.92,1.199c0.08,0,0.16,0,0.24,0c0.664,0.537,1.466,0.935,2.4,1.2c0.08,0,0.159,0,0.239,0
	c0.824,0.615,1.786,1.094,2.88,1.44c0.08,0,0.16,0,0.24,0c0.646,0.633,1.734,0.823,2.398,1.439c0,0.08,0,0.16,0,0.24s0,0.16,0,0.24
	c-2.273,1.166-5.387,1.492-7.438,2.88c-0.08,0-0.16,0-0.239,0c-3.925,1.196-7.906,2.334-11.281,4.08c-0.08,0-0.16,0-0.24,0
	c-1.323,0.276-2.276,0.924-3.84,0.96c-0.24,0-0.48,0-0.72,0c-6.593-2.769-12.627-6.094-19.2-8.88c0.028-0.612,0.045-1.235,0.72-1.2
	c1.299-0.46,2.839-0.681,3.84-1.44c2.45-0.83,4.789-1.771,7.44-2.399c4.244-0.956,7.222-3.178,12.24-3.36
	c-0.044,0.204,0.093,0.228,0.24,0.24C94.041,52.931,95.208,53.763,96.73,54.24z"/>
<path fill="#974721" d="M102.73,56.88c-0.611-0.204-2.87-0.995-1.92-1.199C101.246,56.285,102.294,56.275,102.73,56.88z"/>
<path fill="#974721" d="M102.97,56.88c0.16,0,0.32,0,0.48,0c0.277-0.039,0.426,0.054,0.479,0.24c0.262,0.538,1.179,0.422,1.439,0.96
	C104.436,57.814,103.634,57.417,102.97,56.88z"/>
<path fill="#974721" d="M105.611,58.08c0.159,0,0.319,0,0.479,0c0.279-0.039,0.428,0.053,0.48,0.24
	c0.436,0.604,1.484,0.595,1.92,1.2C107.397,59.174,106.435,58.695,105.611,58.08z"/>
<path fill="#974721" d="M108.731,59.52c0.159,0,0.319,0,0.479,0c0.613,0.106,1.104,0.336,1.439,0.72
	c-0.21,0.493,1.221,0.479,0.479,0.72C110.466,60.344,109.376,60.153,108.731,59.52z"/>
<path fill="#974721" d="M111.13,61.2c-0.943,1.618-5.086,2.113-7.439,3.12c2.053-1.389,5.165-1.714,7.439-2.88
	C111.13,61.36,111.13,61.28,111.13,61.2z"/>
<path fill="#974721" d="M87.371,69.36c-0.337,0.699-0.827-0.426-1.44-0.24c-0.08,0-0.16,0-0.24,0
	c-0.825-0.615-1.786-1.094-2.88-1.439c-0.08,0-0.16,0-0.24,0c-4.548-2.732-10.108-4.452-14.64-7.2c0.08,0,0.16,0,0.24,0
	C74.744,63.267,80.778,66.593,87.371,69.36z"/>
<path fill="#974721" d="M68.891,59.28c0.059-0.261,0.477-0.163,0.48-0.48c0.614-0.024,1.144-0.136,1.44-0.479
	c0.864,0.063,1.157-0.443,1.92-0.48C71.73,58.6,70.19,58.82,68.891,59.28z"/>
<path fill="#974721" d="M80.17,55.44c0.06-0.26,0.477-0.163,0.48-0.48c0.341,0.021,0.68,0.04,0.72-0.24
	c3.212-0.787,6.002-1.997,9.12-2.88c0.574,0.146,1.742-0.301,1.92,0.24C87.392,52.262,84.415,54.484,80.17,55.44z"/>
<path fill="#171115" d="M41.53,78.24c-0.36,1.617,0.932,2.119,0.48,3.12c6.479,3.761,13.583,6.896,20.4,10.32
	c-0.407-0.857-1.634-1.737-0.96-2.881c-0.119-8.349-0.005-18.824-0.72-27.359c-1.419-0.98-3.192-1.608-4.8-2.4
	c-0.166-0.474-0.64-0.64-1.2-0.72c0-0.08,0-0.16,0-0.24c2.17,0.949,4.313,1.927,6.24,3.12c1.414,8.627,1.21,20.462,1.2,29.04
	c0.147,1.133,1.833,0.727,1.92,1.92c-4.825-1.114-11.534-5.032-16.8-7.68C44.755,83.206,40.103,82.218,41.53,78.24z"/>
<path fill="#171115" d="M53.05,57.36c-0.847-0.033-1.073-0.688-1.92-0.72c-0.896,0.256-0.684-0.597-1.44-0.48
	c-1.212-1.268-3.456-1.504-4.8-2.64C47.714,54.697,50.526,55.884,53.05,57.36z"/>
<path fill="#171115" d="M44.65,53.52c-1.039-0.059-2.564-1.9-3.12-0.24c0,0.56,0,1.12,0,1.68c-0.559,3.201-0.081,7.439-0.24,11.04
	c-0.168-3.928-0.918-10.517,0.48-13.68C43.119,52.332,43.82,52.99,44.65,53.52z"/>
<path fill="#402E2C" d="M144.731,79.2c0.324,0.236,0.479,0.64,0.72,0.96c7.106-1.774,12.896-4.864,19.68-6.96
	c-0.018,0.418,0.055,0.747,0.24,0.96c-1.349-0.757-3.713,0.437-5.76,1.2c-4.744,1.77-9.718,4.195-14.4,5.28
	C145.273,79.938,144.667,79.903,144.731,79.2z"/>
<path fill="#402E2C" d="M77.53,53.52c0.68-0.04,1-0.44,1.68-0.48c-0.833,0.606-1.951,0.929-3.12,1.2
	c0.153-0.487,1.122-0.158,1.2-0.72C77.371,53.52,77.45,53.52,77.53,53.52z"/>
<path fill="#402E2C" d="M135.13,55.2c1.529-0.711,3.104-1.375,5.039-1.68c0.688-0.047,1.311-0.03,1.201,0.72
	c-1.853-1.241-3.982,0.827-6,0.96C135.291,55.2,135.21,55.2,135.13,55.2z"/>
<path fill="#171115" d="M140.651,82.56c-2.63,2.175-9.17,3.96-13.2,5.52c-4.101,1.587-7.928,4.069-11.76,3.601
	c-0.607-0.782,1.412-0.542,1.68-1.2c-0.563-8.806-0.16-18.717,0-27.601c0.772-0.507,1.172-1.389,1.68-2.159
	c5.361-1.841,10.492-3.908,16.08-5.521c0.08,0,0.16,0,0.24,0c-5.318,2.281-11.514,3.686-16.561,6.24
	c-0.873,2.087-0.331,5.589-0.479,8.399c-0.4,5.12-0.4,11.919,0,17.04c0,0.721,0,1.44,0,2.16c0.936,1.563-0.326,1.322-0.961,2.4
	C124.8,89.11,133.355,85.825,140.651,82.56z"/>
<path fill="#171115" d="M141.611,59.52c0,3.123,0,7.061,0,11.76c0,3.114,0.626,9.949-0.96,11.04c0.688-1.312,0.788-3.212,0.72-5.28
	c0-2.64,0-5.28,0-7.92c0-3.2,0-6.399,0-9.6C141.451,59.52,141.531,59.52,141.611,59.52z"/>
<path fill="#171115" d="M141.371,54.24c0.109-0.75-0.513-0.768-1.199-0.72c0.359-0.28,0.586-0.693,1.199-0.721
	c-0.17,0.891,0.41,1.03,0.24,1.92c-0.08,0-0.16,0-0.24,0C141.371,54.56,141.371,54.4,141.371,54.24z"/>
<path fill="#402E2C" d="M41.53,53.28c0.556-1.66,2.082,0.182,3.12,0.24c0.08,0,0.16,0,0.24,0c1.344,1.136,3.588,1.373,4.8,2.64
	C46.893,55.425,44.583,52.964,41.53,53.28z"/>
<path fill="#402E2C" d="M51.13,56.64c0.847,0.032,1.073,0.687,1.92,0.72c0.738,0.063,1.08,0.521,1.68,0.72c0,0.08,0,0.16,0,0.24
	c0.56,0.08,1.034,0.246,1.2,0.72C54.363,58.208,52.533,57.638,51.13,56.64z"/>
<path fill="#666773" d="M58.57,88.56c0.979,0.062,1.186,0.895,2.4,0.72c-0.67,0.654-1.785-0.283-2.4-0.48
	C58.57,88.72,58.57,88.64,58.57,88.56z"/>
<path fill="#666773" d="M42.01,75.84c0.679,0.842-0.187,3.228,0.48,4.08C41.502,79.388,42.237,77.134,42.01,75.84z"/>
<path fill="#666773" d="M73.45,54.96c1.001-0.759,2.541-0.979,3.84-1.439c-0.078,0.562-1.047,0.232-1.2,0.72c-0.08,0-0.16,0-0.24,0
	C74.958,54.388,74.342,54.812,73.45,54.96z"/>
<path fill="#974721" d="M135.371,55.2c2.019-0.133,4.148-2.201,6-0.96c0,0.16,0,0.32,0,0.479c0,1.601,0,3.2,0,4.801
	c0,3.2,0,6.399,0,9.6c-0.398,2.083-0.398,5.838,0,7.92c0.068,2.068-0.029,3.97-0.72,5.28c-6.973,2.713-14.259,6.374-21.841,7.68
	c-0.332-0.146-0.036-0.924-0.479-0.96c0-0.72,0-1.439,0-2.16c0-5.68,0-11.359,0-17.04c0.147-2.812-0.395-6.313,0.479-8.399
	C123.857,58.885,130.05,57.481,135.371,55.2z M118.81,61.92c-0.416,4.205-0.239,9.11-0.239,13.92c0,4.826-0.583,9.96,0.72,13.681
	c3.711-0.214,7.287-2.036,10.801-3.36c3.617-1.363,7.354-2.539,10.561-4.32c0.383-6.029,0.479-14.323,0.479-21.359
	c0-2.262,0.754-5.16-0.959-6.48C133.042,56.633,125.197,58.547,118.81,61.92z"/>
<path fill="#402E2C" d="M38.41,75.84c0.669,1.137-0.107,3.689,0,4.32c-6.134-2.026-10.659-5.661-16.8-7.68
	c1.886-0.488,5.552,2.2,8.4,3.6c1.389,0.684,2.807,1.319,4.08,1.92c1.231,0.582,2.697,1.63,3.84,1.2c0-0.08,0-0.16,0-0.24
	C38.853,78.683,38.228,76.857,38.41,75.84z"/>
<path fill="#402E2C" d="M73.45,54.96c0.892-0.147,1.508-0.571,2.4-0.72c-0.318,0.642-1.514,0.406-1.92,0.96c-0.08,0-0.16,0-0.24,0
	c-0.68,0.04-1,0.44-1.68,0.48c0.078-0.563,1.047-0.233,1.2-0.721C73.291,54.96,73.371,54.96,73.45,54.96z"/>
<path fill="#402E2C" d="M41.53,54.96c0.007,7.526,0.34,14.707,0.48,20.88c0.227,1.293-0.508,3.549,0.48,4.08c0,0.16,0,0.32,0,0.48
	c5.027,3.053,10.62,5.541,16.08,8.16c0,0.08,0,0.16,0,0.239c0.615,0.197,1.729,1.135,2.4,0.48c0.214-0.106,0.429-0.211,0.48-0.48
	c-0.674,1.144,0.553,2.023,0.96,2.881c-6.817-3.424-13.921-6.56-20.4-10.32c0.452-1.001-0.84-1.503-0.48-3.12
	c-0.288-0.315-0.093-0.377,0-0.72c-0.159-3.36,0.319-7.359-0.24-10.32c0-0.4,0-0.8,0-1.2C41.45,62.399,40.971,58.161,41.53,54.96z"
	/>
<path fill="#402E2C" d="M65.771,57.84c0.766-0.674,2.056-0.823,3.12-1.199c-0.318,0.642-1.514,0.406-1.92,0.96
	c-0.08,0-0.16,0-0.24,0C66.277,57.546,66.201,57.871,65.771,57.84z"/>
<path fill="#402E2C" d="M82.57,67.68c-5.451-2.256-11.38-5.226-16.32-7.2c0.208-0.525,1.554-1.147,1.92-0.721
	c-0.591-0.372-0.706,0.815-0.24,0.721C72.462,63.228,78.022,64.948,82.57,67.68z"/>
<path fill="#402E2C" d="M111.13,60.96c0.74-0.241-0.689-0.227-0.479-0.72c0.388-0.068,0.413,0.227,0.72,0.24
	c0.149,0.73,1.291,0.469,1.439,1.2c-8.238,2.642-16.221,5.54-24,8.64c0.523-0.044,0.763,0.196,0.72,0.72
	c-0.193,0.127-0.39,0.25-0.72,0.24c1.5-0.649-1.136-1.202-1.2-0.24c0.074,0.326,0.601,0.199,0.96,0.24c0,0.08,0,0.16,0,0.24
	c-0.08,0-0.16,0-0.24,0c-0.547,0.066-0.902-0.059-0.96-0.48c0.07-0.489,0.649-0.471,0.72-0.96c-0.83-0.21-1.663-0.417-2.16-0.96
	c0.613-0.186,1.104,0.939,1.44,0.24c0.24,0,0.48,0,0.72,0c1.288,0.641,2.871-0.484,3.84-0.96c0.08,0,0.16,0,0.24,0
	c3.805-1.315,7.746-2.494,11.281-4.08c0.079,0,0.159,0,0.239,0c2.354-1.007,6.496-1.502,7.438-3.12
	C111.13,61.12,111.13,61.04,111.13,60.96z"/>
<path fill="#402E2C" d="M115.691,60.24c0.387-0.068,0.413,0.227,0.721,0.24c0.071,0.632-0.332,0.788-0.961,0.72
	C115.349,60.698,115.615,60.564,115.691,60.24z"/>
<path fill="#974721" d="M88.09,69.36c1.564-0.037,2.517-0.685,3.84-0.96C90.961,68.876,89.378,70.001,88.09,69.36z"/>
<path fill="#974721" d="M92.17,68.4c3.375-1.745,7.356-2.884,11.281-4.08C99.917,65.906,95.975,67.084,92.17,68.4z"/>
<path fill="#402E2C" d="M118.332,89.04c0.442,0.036,0.146,0.813,0.479,0.96c7.582-1.306,14.868-4.966,21.841-7.68
	c0,0.08,0,0.16,0,0.24c-7.296,3.265-15.851,6.55-23.28,8.88C118.003,90.362,119.266,90.603,118.332,89.04z"/>
<path fill="#171115" d="M114.731,83.28c-0.688,3.344,1.14,8.605-0.479,11.04c-1.115,1.675-9.828,4.188-12,5.04
	c-2.197,0.86-4.319,1.438-6.24,2.16c-2.766,1.036-5.363,3.24-9.6,2.398c-1.581-0.313-3.377-1.845-5.04-2.64
	c-3.81-1.822-6.107-3.201-10.32-5.04c-2.718-1.188-5.634-1.362-6.24-3.84c-1.277-5.225,0.475-13.141,0-19.681
	c-0.183-2.521-0.355-6.235-0.24-9.6c0.846,0.034,0.684,1.076,0.96,1.68c4.003,0.659,7.306,2.952,10.8,4.561
	c3.396,1.563,7.407,2.364,10.08,5.04c0.142,5.339,0.24,11.891,0.24,18.479c0,3.645-0.612,7.576,1.2,10.08
	c1.919-0.288,1.111-1.825,1.2-3.84c0.08,0,0.16,0,0.24,0c-0.024,0.984-0.047,1.968,0.24,2.64c0.218,0.503,0.708,0.732,1.44,0.722
	c-0.308,0.412-1.143,0.297-1.2,0.96c8.408-2.713,16.338-5.902,24.24-9.12C115.101,91.491,113.984,86.453,114.731,83.28z
	 M69.61,95.28c1.682,0.558,3.012,1.468,4.56,2.16c2.106,1.253,4.347,2.373,6.72,3.358c0.89,0.15,1.405,0.676,2.16,0.96
	c1.035,0.729,2.713,2.082,4.08,1.682c-0.944-0.257-0.066-2.334-0.72-2.88c-0.26-8.823-0.044-17.397-0.48-26.4
	c-6.457-3.223-12.938-6.422-20.16-8.88c-0.051,0.269-0.267,0.374-0.48,0.479c-0.405,8.554-0.721,19.824,0.48,28.08
	C66.895,94.476,68.124,95.007,69.61,95.28z"/>
<path fill="#402E2C" d="M113.05,65.04c0.279,0.44,0.628,0.813,0.959,1.2c0.095-0.627,0.123-1.317,0.48-1.68
	c0.557,5.124,0.084,11.276,0.24,16.8c0.393,0.388-0.215,1.004,0,1.92c-0.747,3.173,0.37,8.21-0.721,11.04
	c-7.901,3.218-15.832,6.407-24.24,9.12c0.057-0.663,0.892-0.548,1.2-0.96c-0.731,0.012-1.222-0.22-1.44-0.722
	c0.194,0.207,0.658,0.144,0.72,0.48c5.542-1.938,10.797-3.624,17.04-6c2.412-0.918,5.719-1.675,6.24-3.84
	c1.063-4.417-0.443-11.537,0-16.8c0.119-1.417,0.865-7.647,0-9.601c-0.208-0.467-0.857-1.251-1.681-0.72c-0.08,0-0.159,0-0.239,0
	c-0.24,0-0.48,0-0.721,0C111.253,64.839,112.509,64.57,113.05,65.04z"/>
<path fill="#402E2C" d="M82.811,67.68c1.094,0.346,2.055,0.824,2.88,1.439C84.597,68.774,83.635,68.295,82.811,67.68z"/>
<path fill="#666773" d="M92.17,72c-0.817,0.703-2.072,0.968-2.64,1.92c0.157,9.203-0.316,19.036,0.24,27.84
	c7.761-1.765,15.825-5.289,23.04-8.398c0.906-8.3,0.518-19.155,0.24-27.84c-0.578,0.098-0.521-0.438-1.2-0.24
	c0.823-0.532,1.474,0.252,1.681,0.72c0.865,1.953,0.119,8.185,0,9.601c-0.443,5.263,1.063,12.384,0,16.8
	c-0.521,2.165-3.828,2.922-6.24,3.84c-6.242,2.376-11.498,4.062-17.04,6c-0.063-0.338-0.526-0.273-0.72-0.48
	c-0.287-0.672-0.264-1.654-0.24-2.64c-0.16-7.439,0.32-15.52-0.24-22.56c0.197-1.035,0.148-1.428,0.24-2.88c0-0.16,0-0.32,0-0.48
	c0.622-0.258,0.892-0.868,1.68-0.96C91.649,72.438,91.592,71.902,92.17,72z"/>
<path fill="#666773" d="M84.25,102.24c0.748,0.002,1.564,0.567,2.16,0c-0.33,1.13-1.354,0.507-2.16,0.24
	C84.25,102.4,84.25,102.32,84.25,102.24z"/>
<path fill="#402E2C" d="M86.411,100.561c0.653,0.546-0.224,2.623,0.72,2.88c-1.367,0.4-3.045-0.951-4.08-1.682
	c0.597-0.035,0.743,0.379,1.2,0.48c0,0.08,0,0.16,0,0.24c0.806,0.267,1.831,0.89,2.16-0.24
	C86.411,101.681,86.411,101.12,86.411,100.561z"/>
<path fill="#402E2C" d="M80.891,100.8c-2.374-0.985-4.614-2.105-6.72-3.358C76.521,98.45,78.831,99.5,80.891,100.8z"/>
<path fill="#666773" d="M66.25,93.36c0.656,0.624,1.881,0.679,2.4,1.438c-0.984-0.215-1.666-0.732-2.4-1.198
	C66.25,93.521,66.25,93.44,66.25,93.36z"/>
<path fill="#666773" d="M110.89,65.28c0.24,0,0.48,0,0.721,0c-0.46,0.42-1.252,0.509-1.92,0.72c0.059-0.261,0.477-0.163,0.479-0.479
	C110.208,65.239,110.608,65.318,110.89,65.28z"/>
<path fill="#666773" d="M92.411,72c3.613-1.586,7.608-2.792,11.52-4.08C100.317,69.506,96.322,70.711,92.411,72z"/>
<path fill="#666773" d="M104.89,67.68c0.766-0.675,2.057-0.824,3.119-1.2C107.246,67.154,105.955,67.304,104.89,67.68z"/>
<path fill="#D9D5D9" d="M108.009,66.48c0.533-0.188,0.938-0.504,1.682-0.48c0.668-0.211,1.46-0.299,1.92-0.72
	c0.08,0,0.159,0,0.239,0c0.679-0.198,0.622,0.338,1.2,0.24c0.277,8.685,0.666,19.541-0.24,27.84
	c-7.215,3.108-15.277,6.635-23.04,8.398c-0.556-8.804-0.083-18.637-0.24-27.84c0.568-0.952,1.823-1.217,2.64-1.92
	c0.08,0,0.16,0,0.24,0c3.911-1.289,7.906-2.494,11.52-4.08c0.325-0.075,0.459-0.341,0.96-0.239
	C105.955,67.304,107.246,67.154,108.009,66.48z"/>
<path fill="#402E2C" d="M65.291,65.76c0.319,7.995-0.363,21.579,0.96,27.601c0,0.08,0,0.16,0,0.24
	c0.734,0.466,1.416,0.983,2.4,1.198c0.447,0.033,0.802,0.158,0.96,0.48c-1.487-0.273-2.715-0.805-3.84-1.44
	C64.569,85.584,64.886,74.313,65.291,65.76z"/>
<path fill="#402E2C" d="M60.01,95.04c0.49,0.229,0.95,0.49,1.44,0.72c1.841,8.736-0.098,17.929,1.2,26.642
	c0.156,1.045,0.236,1.347,0.72,2.16c-3.918-1.302-6.881-3.21-10.8-5.28c-2.133-1.127-8.9-3.678-9.84-6
	c-0.821-2.027-0.142-5.44-0.24-7.92c-0.259-6.538-0.674-13.374-0.48-19.68c0.862,0.098,0.861,1.059,1.92,0.96
	c0,0.08,0,0.159,0,0.239c-1.551-0.063-1.253,0.128-1.44,0.48c-0.225,0.423-0.156,5.113,0,8.16c0.192,3.738,0.348,6.688,0.48,9.6
	c0.137,3.004-0.461,6.955,0.72,8.641c1.227,1.75,6.759,3.884,8.88,5.039c0.821,0.448,7.473,5.184,9.12,4.562
	c0.447-0.169,0.527-0.123,0.48-1.2c0-0.08,0-0.16,0-0.24c-0.158-2.001,0.318-4.638-0.24-6.238c0-2.16,0-4.32,0-6.48
	c0-0.8,0-1.6,0-2.399c0.033-1.008-0.436-1.341,0-2.159c-0.155-1.046,0.313-2.714-0.24-3.36c-0.021-2.539,0.344-5.464-1.68-6
	C60.01,95.2,60.01,95.12,60.01,95.04z"/>
<path fill="#402E2C" d="M52.331,91.2c2.474,1.046,4.947,2.093,6.96,3.6C56.987,93.584,54.552,92.498,52.331,91.2z"/>
<path fill="#402E2C" d="M47.53,88.56c1.62,0.62,3.078,1.401,4.32,2.399c-1.569-0.591-2.82-1.5-4.32-2.16
	C47.53,88.72,47.53,88.64,47.53,88.56z"/>
<path fill="#402E2C" d="M44.17,86.88c1.156,0.444,2.363,0.837,3.12,1.681c-1.015-0.267-1.524-1.036-2.64-1.2
	C44.591,87.1,44.173,87.197,44.17,86.88z"/>
<path fill="#402E2C" d="M20.65,73.92c0,0.4,0,0.801,0,1.2c2.743,1.729,5.874,3.25,9.36,5.04c2.29,1.175,7.893,2.96,8.88,5.521
	c0.59,1.528,0.325,4.128,0.48,6.479c0.242,3.662,0.546,6.956,0.48,10.561c-1.261-4.505,0.336-12.839-1.2-16.801
	c-0.895-2.307-6.551-4.201-8.64-5.279c-3.283-1.695-6.292-3.373-9.36-4.32C20.684,75.63,19.983,74.449,20.65,73.92z"/>
<path fill="#402E2C" d="M156.97,80.88c1.57-0.908,3.422-1.539,5.279-2.159C160.679,79.629,158.83,80.258,156.97,80.88z"/>
<path fill="#402E2C" d="M162.492,78.72c0.981-1.259,3.873-0.606,4.079-2.641c0.279,0.041,0.261,0.379,0.24,0.72
	C165.773,77.843,163.944,78.093,162.492,78.72z"/>
<path fill="#402E2C" d="M39.85,104.641c0.442,2.198,0.544,6.013,0.48,7.92c-1.883-0.197-3.188-0.975-4.32-1.92
	c1.168,0.432,1.928,1.271,3.36,1.438C41.069,110.607,39.372,107.196,39.85,104.641z"/>
<path fill="#974721" d="M23.53,104.16c0-0.08,0-0.16,0-0.24c0.24,0,0.48,0,0.72,0c4.142,2.444,8.111,4.218,12,6.48
	c1.041,0.306,2.202,1.547,3.12,1.2c0.233-0.008,0.187-0.294,0.24-0.48c-0.034-5.801-0.379-12.602-0.72-19.439
	c-0.095-1.911-0.027-4.799-0.72-6c-0.843-1.463-5.421-3.305-7.92-4.561c-3.543-1.781-6.072-2.964-8.88-4.08
	c-0.158-0.719-0.513,0.229-0.96,0c0.013-0.307,0.308-0.332,0.24-0.72c3.068,0.947,6.077,2.625,9.36,4.32
	c2.089,1.078,7.746,2.973,8.64,5.279c1.536,3.962-0.062,12.296,1.2,16.801c0,0.641,0,1.279,0,1.921
	c-0.479,2.556,1.219,5.967-0.48,7.438c-1.432-0.168-2.192-1.008-3.36-1.438C31.882,108.448,27.891,106.12,23.53,104.16z"/>
<path fill="#FD6A50" d="M36.25,110.4c0.5-0.012,2.368,0.666,3.12,1.2C38.453,111.947,37.291,110.706,36.25,110.4z"/>
<path fill="#402E2C" d="M166.089,108.48c-0.512-1.009-1.284-1.755-2.159-2.4c0.054-0.187,0.2-0.279,0.479-0.24
	C164.649,107.042,166.132,106.999,166.089,108.48z"/>
<path fill="#402E2C" d="M157.93,108.48c1.214-0.706,2.557-1.283,4.079-1.682c0.08,0,0.16,0,0.24,0
	c-1.217,0.702-2.504,1.336-4.08,1.682C158.089,108.48,158.009,108.48,157.93,108.48z"/>
<path fill="#402E2C" d="M147.611,84.48c-0.518,0.442-1.183,0.737-1.681,1.2c-0.548,8.273-1.15,18.979-0.239,27.119
	c2.871-0.089,4.344-1.575,6.721-2.158c-0.066,0.493-0.896,0.226-0.961,0.72c-0.08,0-0.16,0-0.24,0
	c-2.228,0.812-4.347,1.732-6.719,2.398c1-1.465,0.479-3.828,0.479-6.238c0-2.248-0.116-4.884,0-7.44
	C145.253,93.838,144.05,85.645,147.611,84.48z"/>
<path fill="#171115" d="M116.169,125.76c-0.93-5.996,1.498-9.329,0.961-16.56c-0.254-3.402-1.471-10.056,0.24-12.96
	c1.252-2.126,9.426-4.047,12-5.04c4.311-1.663,8.278-3.538,12-4.32c0.022,5.494,0.239,10.645,0.239,16.32
	c0,4.818,0.778,11.638-1.2,12.96c-3.275,2.189-7.91,3.271-12,5.04C124.388,122.941,120.361,124.942,116.169,125.76z
	 M118.332,122.641c0.479,1.458,0.063,1.716,0,2.398c5.652-2.285,11.008-4.623,16.799-6.96c1.959-0.79,4.666-1.358,5.521-2.398
	c1.102-1.343,0.766-6.201,0.721-8.882c-0.082-4.655-0.24-8.878-0.24-13.919c0-1.617,1.031-5.165-1.68-4.56
	c-7.142,2.54-14.266,5.096-20.881,8.16C117.388,104.449,118.812,113.789,118.332,122.641z"/>
<path fill="#402E2C" d="M118.332,122.641c0.498,0.062,0.064,1.054,0.479,1.198c4.134-0.75,7.464-2.456,11.521-4.08
	c2.203-0.881,9.362-2.999,10.319-5.038c1.231-2.628,0.239-10.307,0.239-13.922c0-5.008,0.52-9.504-0.96-12.479
	c-0.159,0-0.319,0-0.479,0c2.713-0.605,1.68,2.942,1.68,4.56c0,5.042,0.16,9.264,0.24,13.919c0.047,2.681,0.381,7.539-0.72,8.882
	c-0.854,1.04-3.563,1.608-5.521,2.398c-5.793,2.337-11.146,4.675-16.801,6.96C118.395,124.356,118.811,124.099,118.332,122.641z"/>
<path fill="#974721" d="M43.93,86.88c0.08,0,0.16,0,0.24,0c0.003,0.317,0.42,0.22,0.48,0.48c-0.703-0.216-0.737-0.216-1.44,0
	c0.375,8.13-0.808,16.532,0.24,24c0.468,3.333,5.82,5.061,8.88,6.72c3.161,1.715,8.277,5.462,9.84,4.08
	c0.047,1.077-0.033,1.031-0.48,1.2c-1.647,0.622-8.299-4.112-9.12-4.562c-2.121-1.155-7.653-3.29-8.88-5.04
	c-1.182-1.685-0.583-5.636-0.72-8.64c-0.132-2.91-0.288-5.86-0.48-9.6c-0.156-3.047-0.225-7.737,0-8.16
	C42.677,87.009,42.379,86.816,43.93,86.88z"/>
<path fill="#171115" d="M116.169,94.561c0,0.318,0,0.64,0,0.96C115.248,95.709,115.248,94.371,116.169,94.561z"/>
<path fill="#171115" d="M114.492,125.76c0.369,1.046-1.063,1.329,0,1.682c-5.74,2.749-12.048,5.106-18.48,7.92
	c-2.719,1.188-4.9,3.295-8.4,2.399c-3.611-0.924-7.163-3.569-11.28-5.761c-2.155-1.146-9.665-3.684-10.8-6.24
	c-1.338-3.013-0.041-8.438-0.24-12.96c-0.239-5.438-0.35-11.04-0.24-15.6c4.257,1.173,7.537,3.245,12,5.521
	c2.816,1.436,8.934,3.098,10.08,5.521c2.042,4.313-0.237,13.5,1.44,19.2c2.306-6.007,0.411-12.938,1.92-19.2
	c7.653-3.629,17.072-6.767,24.241-10.08c0.688,3.882-0.299,7.968,0,12.24c0.109,0.319,1.037-0.288,1.199,0.479
	c-0.084,0.949-0.719,1.067-1.199,0.48c-0.16,4.641,0.318,9.92-0.24,14.16c-0.154-8.985,0.23-18.608,0-26.88
	c-0.392,0.808-1.838,0.562-2.4,1.198c-6.264,2.377-12.271,5.009-18.479,7.44c-0.891,0.229-1.831,0.409-2.16,1.2
	c-0.577,0.304,0.132,1.893-0.48,2.16c-0.325-3.221-0.24,3.669-0.24,5.52c0,5.758-0.359,15.791,0.48,19.68
	c-0.032,0.93-0.974,0.947-1.2,1.682c8.105-2.775,15.083-6.679,23.04-9.602C113.707,127.376,113.949,126.418,114.492,125.76z
	 M68.17,98.641c-0.17-0.719-2.79-1.25-2.88-0.48c-0.098,4.271,0.009,9.389,0.24,14.64c0.183,4.163-0.696,8.611,0,12
	c0.543,2.646,3.218,3.042,5.76,4.32c5.695,2.863,10.357,5.729,15.84,7.92c-0.67-0.692,0.593-4.546-0.24-6.72c0-0.24,0-0.48,0-0.72
	c0.399-1.844,0.399-5.357,0-7.2c0-2.72,0-5.44,0-8.16c-0.158-1.762,0.317-4.157-0.24-5.52c-1.214-2.519-6.28-4.116-9.12-5.521
	C73.956,101.433,70.945,99.914,68.17,98.641z"/>
<path fill="#402E2C" d="M86.891,130.32c0.833,2.174-0.43,6.026,0.24,6.72c-5.482-2.19-10.145-5.057-15.84-7.92
	c-2.542-1.278-5.217-1.674-5.76-4.32c-0.696-3.389,0.183-7.837,0-12c-0.231-5.251-0.337-10.367-0.24-14.64
	c0.09-0.77,2.71-0.237,2.88,0.48c-0.534-0.348-1.157-0.604-2.16-0.48c-0.548,2.652-0.089,6.312-0.24,9.36
	c0.119,2.279-0.264,5.063,0.24,6.96c0.088,2.61-0.013,4.12,0,6.96c-0.09,2.01-0.066,3.905,1.44,4.318
	c5.132,2.868,10.523,5.479,15.84,8.16c0.849,0.377,2.958,2.427,3.6,0.722C86.891,133.2,86.891,131.76,86.891,130.32z"/>
<path fill="#666773" d="M83.291,133.92c1.298,0.049,2.239,1.511,3.6,0.722C86.249,136.346,84.14,134.297,83.291,133.92z"/>
<path fill="#402E2C" d="M90.97,124.8c0.143,3.618-0.295,7.816,0.24,11.04c5.196-0.916,11.273-4.057,16.799-6.479
	c2.646-1.16,5.171-1.717,6.24-3.602c0.203-5.827-0.265-15.091,0-21.118c0.084-1.893,0.848-4.236-0.479-5.04
	c-0.778-0.141-1.116,0.163-1.681,0.238c0.563-0.638,2.01-0.392,2.4-1.198c0.23,8.271-0.154,17.895,0,26.88c0,0.08,0,0.16,0,0.238
	c-0.542,0.658-0.783,1.616-1.439,2.16c-7.957,2.923-14.936,6.825-23.041,9.602c0.227-0.733,1.168-0.752,1.2-1.682
	c-0.839-3.889-0.48-13.922-0.48-19.68c0-1.851-0.085-8.739,0.24-5.52c0,0.158,0,0.318,0,0.479c0,1.28,0,2.562,0,3.84
	c0,0.8,0,1.602,0,2.4c0,1.438,0,2.88,0,4.32C91.355,122.527,90.77,123.456,90.97,124.8z"/>
<path fill="#974721" d="M113.77,99.601c1.327,0.804,0.563,3.147,0.479,5.04c-0.265,6.027,0.203,15.291,0,21.118
	c-1.069,1.885-3.594,2.44-6.24,3.602c-5.525,2.423-11.604,5.563-16.799,6.479c-0.536-3.224-0.098-7.422-0.24-11.04
	c0.823,3.02-0.48,8.161,0.72,10.802c7.804-2.517,14.769-5.872,21.84-9.12C114.434,118.498,114.048,107.968,113.77,99.601z"/>
<path fill="#974721" d="M91.451,108.48c0.329-0.791,1.27-0.972,2.16-1.2C93.058,107.848,92.139,108.048,91.451,108.48z"/>
<path fill="#D31C22" d="M93.611,107.28c6.207-2.433,12.217-5.063,18.479-7.44c0.563-0.075,0.902-0.379,1.681-0.238
	c0.278,8.366,0.664,18.896-0.239,26.88c-7.072,3.248-14.035,6.604-21.84,9.12c-1.201-2.641,0.103-7.782-0.72-10.802
	c-0.2-1.344,0.385-2.271,0-3.118c0.399-0.889,0.399-3.435,0-4.32c0-0.8,0-1.602,0-2.4c0.399-0.729,0.399-3.11,0-3.84
	c0-0.16,0-0.32,0-0.479c0.613-0.269-0.096-1.856,0.48-2.16C92.139,108.048,93.058,107.848,93.611,107.28z"/>
<path fill="#666773" d="M23.291,103.92c0.08,0,0.16,0,0.24,0c0,0.08,0,0.16,0,0.24c-0.478,0.651-1.502,1.734-0.96,2.64
	c-0.178,1.219,1.093,0.987,1.44,1.682c-0.035,0.523-0.604,0.515-1.2,0.479c-0.663,0.104-0.225-0.895-0.72-0.96
	C21.854,106.004,22.507,104.896,23.291,103.92z"/>
<path fill="#402E2C" d="M62.41,155.28c-0.044,0.204,0.094,0.227,0.24,0.24c0.648-4.211,0.272-10.092,0-16.08
	c-0.146-3.223,0.546-7.517-0.24-9.602c-0.869-2.305-6.919-4.907-8.88-6c-3.49-1.941-6.577-3.727-9.6-4.8
	c-0.194,0.046-0.239,0.241-0.48,0.24c0-0.08,0-0.16,0-0.24c-1.035,1.686-0.221,5.22-0.48,7.682c-0.397-2.48-0.488-6.728,0.24-8.882
	c3.288,1.926,6.285,3.65,10.08,5.762c2.028,1.127,8.931,4.013,9.6,6.238c1.062,3.534-0.142,9.005,0.24,13.682
	c0.364,4.446-0.136,9.492,0.72,13.92c0.943,0.149,1.823,0.629,2.64,0.24c0.257-1.545-0.404-3.429,0-4.32
	c-0.497,6.004,5.332,7.291,10.08,10.08c1.637,0.961,2.897,1.621,5.04,2.88c1.357,0.797,4.281,2.96,5.28,2.16
	c1.965-1.573-0.475-8.852,0.48-11.521c0.888,3.956-0.583,11.287,0.72,13.44c4.366,0.445,7.574-2.346,10.8-3.84
	c-2.857,0.9-5.021,2.497-8.16,3.12c0.166-2.626-0.24-5.912-0.24-9.602c0-5.476,0.164-11.13,0.24-16.08
	c0.92,7.484-0.948,16.755,0.72,24.48c5.359-1.364,11.616-4.38,17.52-6.96c1.453-0.637,4.479-1.684,5.04-2.88
	c1.315-2.808-0.667-6.896,0.479-10.562c0,3.12,0,6.24,0,9.36c0,0.08,0,0.16,0,0.239c-0.054,0.187-0.007,0.474-0.24,0.479
	c2.918,1.277,5.506-0.637,8.4-1.92c5.688-2.521,11.908-4.896,16.561-7.68c-7.187,2.652-13.342,6.339-20.641,8.88
	c-0.168-5.486-0.787-11.281-0.24-17.04c0.146,0.573-0.302,1.741,0.24,1.92c0,3.68,0,7.359,0,11.04
	c-0.047,1.166-0.055,2.294,0.479,2.88c7.785-2.535,14.723-5.919,21.602-9.36c0.393-8.09,0.404-17.831,0-25.92
	c-0.428,0.145-0.997-0.703-1.199,0c-2.025,0.854-4.068,1.692-6.24,2.4c2.457-1.223,4.847-2.515,7.92-3.12
	c-0.153,8.887,0.312,18.392-0.24,26.88c7.999-1.021,14.429-5.527,21.119-8.64c-5.625,2.055-10.469,4.89-16.318,6.72
	c-0.141-0.499-0.505-0.775-0.721-1.2c1.988,1.379,8.053-2.105,10.32-3.12c3.801-1.697,6.916-3.102,9.84-4.08
	c-2.258,2.54-6.487,4.149-10.561,6c-4.717,2.146-8.512,4.122-13.439,5.04c-7.03,4.729-15.928,7.594-24,11.28
	c-0.988,0.188-1.231-0.368-2.16-0.24c-3.53,3.528-8.451,4.985-13.92,7.44c-2.813,1.263-8.914,4.851-11.76,4.8
	c-3.308-0.059-7.402-3.628-10.8-5.52c-3.895-2.17-9.378-4.351-11.76-7.2c-4.832-0.794-7.623-3.618-11.76-6
	c-3.516-2.023-8.07-3.653-9.6-6c5.674,2.565,10.81,6.95,16.32,8.88C61.93,155.28,62.17,155.28,62.41,155.28z M110.412,161.521
	c0.61-0.006,2.295-1.033,1.68-0.721C111.237,160.614,109.408,162.104,110.412,161.521z M99.611,166.32
	c0.611-0.006,2.295-1.033,1.68-0.72C100.437,165.414,98.608,166.905,99.611,166.32z"/>
<path fill="#402E2C" d="M88.57,106.561c0.16,0,0.32,0,0.48,0c-0.044,0.204,0.094,0.226,0.24,0.238c0,0.16,0,0.32,0,0.48
	c-0.204-0.044-0.227,0.094-0.24,0.24c-0.16,0-0.32,0-0.48,0c0.044-0.204-0.093-0.228-0.24-0.24c0-0.16,0-0.32,0-0.48
	C88.535,106.845,88.557,106.707,88.57,106.561z"/>
<path fill="#402E2C" d="M118.332,140.16c-0.355-2.997-0.558-7.915,0.239-10.56c1.104-0.659,2.959-1.836,4.08-1.682
	c-0.331-0.01-0.526,0.113-0.721,0.24c-0.146,0.014-0.284,0.036-0.239,0.24c-1.119,0.722-2.913,0.767-3.12,2.398
	c-0.555,0.807-0.084,2.638-0.239,3.842c0,0.318,0,0.64,0,0.96C118.332,137.12,118.332,138.641,118.332,140.16z"/>
<path fill="#974721" d="M45.13,145.681c5.57,3.148,10.862,6.576,16.56,9.6c-5.51-1.93-10.646-6.313-16.32-8.88
	C45.381,146.07,45.257,145.873,45.13,145.681z"/>
<path fill="#666773" d="M30.73,112.32c0.802,0.158,1.173,0.746,1.92,0.96C32.322,113.593,30.726,113.135,30.73,112.32z"/>
<path fill="#171115" d="M142.81,115.92c0.854,0.398,1.009,2.149-0.479,1.92C141.71,117.149,142.511,116.425,142.81,115.92z"/>
<path fill="#974721" d="M43.93,119.04c3.023,1.073,6.11,2.857,9.6,4.8c1.96,1.093,8.011,3.695,8.88,6
	c0.786,2.085,0.094,6.379,0.24,9.602c0.272,5.988,0.648,11.869,0,16.08c-0.146-0.015-0.284-0.036-0.24-0.24
	c0.562-4.119,0.18-8.463,0-12.96c-0.171-4.279,0.92-9.344-0.48-12.72c-0.933-2.25-6.779-4.339-8.88-5.521
	C49.723,122.209,47,120.549,43.93,119.04z"/>
<path fill="#974721" d="M67.93,131.28c6.167,3.354,12.417,6.624,18.48,10.08c0.229,0.49,0.49,0.949,0.72,1.438
	c0.16,3.521-0.319,7.681,0.24,10.802c0,1.119,0,2.238,0,3.358c-0.955,2.67,1.485,9.947-0.48,11.521
	c-0.999,0.8-3.923-1.363-5.28-2.16c-2.143-1.259-3.403-1.919-5.04-2.88c-4.749-2.789-10.577-4.076-10.08-10.08c0-0.16,0-0.32,0-0.48
	c0.321-7.291-0.552-14.634,0-21.358C66.774,131.244,67.339,131.249,67.93,131.28z M85.21,167.76c0.338,0.734,1.745,0.977,1.92,0
	c0.022-8.741-0.07-17.369-0.48-25.681c-2.801-2.238-6.294-3.756-9.6-5.52c-3.274-1.747-6.419-4.314-10.08-4.802
	c0.011,0.331-0.113,0.527-0.24,0.722c-0.398,0.414-0.398,2.466,0,2.88c-0.14,3.26,0.075,6.894,0.24,10.8
	c0.163,3.85-0.956,8.413,0.24,11.04c1.118,2.456,5.846,2.956,7.44,4.561c1.585,1.374,3.718,2.201,5.52,3.359
	c0.355,0.125,0.605,0.355,0.96,0.48c1.11,0.89,2.52,1.479,3.84,2.159C85.05,167.76,85.13,167.76,85.21,167.76z"/>
<path fill="#974721" d="M139.451,120.96c0.203-0.703,0.772,0.145,1.2,0c0.404,8.089,0.392,17.83,0,25.92
	c-6.879,3.441-13.815,6.825-21.601,9.36c-0.534-0.586-0.526-1.714-0.479-2.88c0.525,0.435,0.04,1.879,0.479,2.399
	c7.994-2.405,15.144-5.656,21.601-9.601c-0.071-6.517,0.067-12.774,0-18.24c-0.028-2.334,0.187-4.823-0.721-6.72
	C139.652,121.239,139.503,121.147,139.451,120.96z"/>
<path fill="#171115" d="M64.09,126.96c1.121-0.239,1.342,0.419,1.2,1.44C64.196,128.615,64.32,127.611,64.09,126.96z"/>
<path fill="#171115" d="M116.89,127.2c0.02,0.899,0.184,1.942-0.96,1.68C115.587,128.135,115.971,127.328,116.89,127.2z"/>
<path fill="#402E2C" d="M113.05,132c0.469-0.758,1.265,0.153,1.439,0.48c0,0.08,0,0.16,0,0.24c0,0.318,0,0.64,0,0.96
	C114.031,133.1,114.384,131.706,113.05,132z"/>
<path fill="#FD6A50" d="M74.65,161.76c1.853,1.107,4.071,1.85,5.52,3.359C78.368,163.962,76.236,163.135,74.65,161.76z"/>
<path fill="#FD6A50" d="M81.13,165.601c1.433,0.566,2.759,1.239,3.84,2.159C83.65,167.081,82.241,166.49,81.13,165.601z"/>
<path fill="#666773" d="M113.05,132c1.334-0.294,0.979,1.101,1.439,1.682c0,3.358,0,6.72,0,10.079c-0.398,0.809-0.398,3.271,0,4.079
	c0,0.08,0,0.16,0,0.24c-1.146,3.664,0.836,7.754-0.48,10.562c-0.561,1.196-3.586,2.243-5.039,2.88
	c-5.903,2.58-12.16,5.596-17.52,6.96c-1.668-7.727,0.2-16.996-0.72-24.48c0-0.08,0-0.16,0-0.238c-0.104-1.546,0.564-2.316,1.2-3.12
	C99.042,137.834,106.046,134.917,113.05,132z M102.73,163.681c2.229-0.932,10.098-3.288,11.04-5.28
	c1.442-3.046,0.14-9.377,0.239-13.68c0.111-4.705,0.65-9.721-0.239-12.24c-0.04-0.28-0.379-0.261-0.72-0.24
	c-3.618,1.558-6.868,2.836-11.041,4.56c-2.084,0.862-9.933,3.173-10.799,5.04c-0.519,1.119-0.006,4.504,0,6.24
	c0.026,8.004-0.44,13.504,0.24,19.92C95.421,167.688,98.649,165.384,102.73,163.681z"/>
<path fill="#D9D5D9" d="M91.451,168c-0.681-6.416-0.214-11.916-0.24-19.92c-0.006-1.736-0.519-5.121,0-6.24
	c0.866-1.867,8.716-4.178,10.8-5.04c4.172-1.724,7.422-3.002,11.039-4.56c0.342-0.021,0.681-0.04,0.721,0.24
	c0.891,2.521,0.352,7.535,0.24,12.24c-0.102,4.303,1.203,10.634-0.24,13.68c-0.943,1.992-8.811,4.35-11.04,5.28
	C98.649,165.384,95.421,167.688,91.451,168z"/>
<path fill="#402E2C" d="M90.73,143.76c-0.701-1.109,0.43-2.443,0.96-3.119c0.08,0,0.16,0,0.24,0
	C91.295,141.444,90.626,142.216,90.73,143.76z"/>
<path fill="#171115" d="M112.089,160.801c0.615-0.313-1.067,0.715-1.68,0.721C109.408,162.104,111.237,160.614,112.089,160.801z"/>
<path fill="#171115" d="M101.291,165.601c0.615-0.313-1.067,0.714-1.68,0.72C98.608,166.905,100.437,165.414,101.291,165.601z"/>
<path fill="#4AB66E" d="M114.009,21.6c-0.936,1.463-3.629,1.171-4.799,2.399c-0.037,0.444-0.813,0.147-0.961,0.48
	c-1.465-0.262-3.574,0.901-5.039,1.439c-0.78,0.181-1.485,0.436-2.16,0.721c-0.279-0.039-0.428,0.053-0.479,0.239
	c-2.183,0.378-3.942,1.179-5.761,1.92c-2.817,0.762-4.84-0.98-6.959-1.68c-1.369-0.471-2.761-0.919-4.08-1.439
	c-0.158-0.322-0.513-0.447-0.96-0.48c-0.703,0.063-0.737-0.543-1.44-0.48c-0.036-0.443-0.813-0.146-0.96-0.479
	c-1.317-0.204-2.038-1.002-3.36-1.2c-0.58-0.541-1.379-0.859-2.4-0.96c2.9-1.239,6.294-2.201,9.84-3.36
	c3.882-1.269,7.799-3.909,12.48-3.359c2.481,0.292,5.597,1.869,8.399,2.88C108.382,19.327,111.339,20.507,114.009,21.6z"/>
<path fill="#666773" d="M108.25,24.48c-1.49,0.51-2.867,1.132-4.56,1.439c-0.16,0-0.319,0-0.479,0
	C104.675,25.382,106.787,24.219,108.25,24.48z"/>
<path fill="#FD6A50" d="M138.731,31.44c-3.269,1.451-6.86,2.375-10.562,3.6c-3.377,1.118-7.402,3.535-10.799,3.36
	c-2.637-0.136-7.088-2.623-9.602-3.601c-3.195-1.243-6.436-2.105-8.88-4.079c5.921-2.24,12.462-3.859,18.239-6.24
	c0.205,0.044,0.228-0.095,0.24-0.24c7.881,0.762,14.627,4.514,21.6,6.96C138.824,31.214,138.686,31.236,138.731,31.44z"/>
<path fill="#F2C901" d="M18.73,43.92c2.237-0.582,6.552,2.055,9.84,3.601c2.425,1.141,7.59,2.712,8.4,4.8
	c1.038,2.677,0.559,7.605,0.72,11.28c0.201,4.568,0.442,11.614,0.24,15.12c-6.457-2.023-11.728-5.232-17.28-8.16
	C19.015,62.675,19.339,52.832,18.73,43.92z"/>
<path fill="#0496E6" d="M138.25,49.92c0.03,0.432-0.293,0.506-0.24,0.96c-0.239,0-0.284,0.195-0.479,0.24
	c-2.869,0.325-6.873,2.201-10.32,3.36c-3.219,1.083-7.467,3.489-10.56,3.359c-3.353-0.141-6.825-2.625-9.841-3.84
	c-3.346-1.349-6.411-2.406-9.84-3.84c0.001-0.241-0.194-0.286-0.24-0.479c6.846-2.915,14.086-5.436,21.841-7.44
	C125.292,44.638,131.807,47.244,138.25,49.92z"/>
<path fill="#171115" d="M70.811,58.32c3.012-1.388,6.428-2.372,9.84-3.36c-0.003,0.317-0.42,0.221-0.48,0.48
	c-2.651,0.629-4.99,1.569-7.44,2.399C71.967,57.877,71.674,58.384,70.811,58.32z"/>
<path fill="#402E2C" d="M141.371,59.52c0-1.601,0-3.2,0-4.801c0.08,0,0.16,0,0.24,0c0,1.601,0,3.2,0,4.801
	C141.531,59.52,141.451,59.52,141.371,59.52z"/>
<path fill="#666773" d="M63.13,60c-0.014-0.146-0.036-0.284-0.24-0.24c-0.565-0.064-0.146-1.063,0.24-0.96
	c0.942,0.265,1.117,0.768,0.24,1.2C63.291,60,63.21,60,63.13,60z"/>
<path fill="#171115" d="M90.97,72.24c6.105-2.534,12.635-4.646,19.199-6.72c-0.002,0.316-0.42,0.219-0.479,0.479
	c-0.744-0.023-1.146,0.293-1.682,0.48c-1.063,0.376-2.354,0.525-3.119,1.2c-0.501-0.103-0.635,0.165-0.96,0.239
	c-3.911,1.289-7.906,2.494-11.52,4.08c-0.08,0-0.16,0-0.24,0C91.592,71.902,91.649,72.438,90.97,72.24z"/>
<path fill="#F2C901" d="M166.571,71.04c-1.856,2.521-7.018,3.938-11.28,5.521c-3.651,1.355-7.164,3.044-10.08,3.12
	c-0.373-6.181-0.313-14.48-0.239-19.921c0.03-2.225-0.474-5.792,0.479-7.439c1.035-1.79,8.063-3.366,10.08-4.08
	c3.918-1.387,6.809-2.51,10.319-3.6c0.343,0.058,0.405,0.395,0.721,0.479c0.527,8.39-0.254,16.841,0,25.68
	C166.571,70.88,166.571,70.96,166.571,71.04z"/>
<path fill="#171115" d="M89.291,73.68c-0.092,1.452-0.043,1.845-0.24,2.88c0,0.8,0,1.6,0,2.399
	C88.662,77.687,88.548,74.622,89.291,73.68z"/>
<path fill="#D31C22" d="M51.851,90.96c0.194,0.046,0.239,0.241,0.48,0.24c2.222,1.298,4.656,2.384,6.96,3.6
	c0.193,0.127,0.39,0.251,0.72,0.24c0,0.08,0,0.16,0,0.24c2.024,0.536,1.659,3.461,1.68,6c0.155,1.045-0.313,2.713,0.24,3.36
	c-0.436,0.818,0.033,1.151,0,2.158c-0.397,0.26-0.397,2.143,0,2.4c0,2.16,0,4.32,0,6.48c0.159,2.001-0.317,4.638,0.24,6.238
	c0,0.08,0,0.16,0,0.24c-1.563,1.382-6.679-2.365-9.84-4.08c-3.061-1.659-8.413-3.387-8.88-6.72c-1.047-7.468,0.136-15.87-0.24-24
	c0.703-0.216,0.737-0.216,1.44,0c1.116,0.164,1.625,0.934,2.64,1.2c0.08,0,0.16,0,0.24,0c0,0.08,0,0.159,0,0.239
	C49.031,89.46,50.282,90.369,51.851,90.96z"/>
<path fill="#402E2C" d="M89.05,99.12c0.188-1.979-0.299-4.184,0-5.52c0-1.521,0-3.041,0-4.562c0-0.24,0-0.479,0-0.72
	c0-1.36,0-2.72,0-4.08c-0.45-0.458,0.143-0.435,0-1.2c0-0.96,0-1.92,0-2.88c0-0.4,0-0.8,0-1.2c0-0.8,0-1.6,0-2.399
	c0.56,7.041,0.08,15.12,0.24,22.56C89.21,99.12,89.13,99.12,89.05,99.12z"/>
<path fill="#015FAF" d="M83.05,101.76c-0.754-0.284-1.27-0.81-2.16-0.96c-2.06-1.3-4.37-2.35-6.72-3.358
	c-1.548-0.692-2.878-1.604-4.56-2.16c-0.158-0.322-0.513-0.447-0.96-0.48c-0.519-0.761-1.744-0.814-2.4-1.438
	c-1.323-6.021-0.641-19.605-0.96-27.6c0.213-0.106,0.429-0.212,0.48-0.48c7.222,2.458,13.703,5.657,20.16,8.88
	c0.437,9.003,0.22,17.577,0.48,26.4c0,0.56,0,1.12,0,1.68c-0.596,0.567-1.413,0.002-2.16,0
	C83.793,102.138,83.647,101.724,83.05,101.76z"/>
<path fill="#402E2C" d="M41.291,138.96c-0.603-6.677-0.539-14.021-0.96-20.88c-2.095-2.064-5.073-3.247-7.68-4.8
	c-0.747-0.214-1.118-0.802-1.92-0.96c-2.157-1.363-4.474-2.566-6.72-3.84c-0.347-0.693-1.618-0.463-1.44-1.682
	c2.616,2.065,5.446,3.407,8.88,5.28c1.855,1.012,8.022,3.689,8.88,5.521c1.615,3.444,0.5,9.557,0.72,14.398
	C41.154,134.292,41.467,136.525,41.291,138.96z"/>
<path fill="#D31C22" d="M121.691,128.4c3.65-1.869,7.764-3.276,11.52-5.04c2.172-0.708,4.215-1.546,6.24-2.4
	c0.053,0.188,0.201,0.279,0.479,0.24c0.905,1.896,0.69,4.386,0.721,6.72c0.067,5.466-0.071,11.725,0,18.24
	c-6.457,3.943-13.606,7.194-21.601,9.601c-0.439-0.521,0.046-1.966-0.479-2.399c0-3.68,0-7.36,0-11.04
	c-0.159-2.161,0.317-4.958-0.239-6.72c0-0.32,0-0.642,0-0.96c0.555-0.807,0.084-2.638,0.239-3.842
	C118.778,129.167,120.572,129.122,121.691,128.4z"/>
<path fill="#F2C901" d="M43.93,119.04c3.069,1.509,5.792,3.169,9.12,5.04c2.101,1.183,7.947,3.271,8.88,5.521
	c1.4,3.376,0.309,8.439,0.48,12.72c0.18,4.497,0.562,8.841,0,12.96c-0.24,0-0.48,0-0.72,0c-5.698-3.022-10.99-6.45-16.56-9.6
	c-0.346-0.136-0.585-0.375-0.72-0.722c-0.106-0.213-0.21-0.429-0.48-0.479c-0.197-8.21-0.899-17.172-0.48-25.2
	C43.691,119.281,43.736,119.086,43.93,119.04z"/>
<path fill="#974721" d="M43.45,119.28c-0.419,8.028,0.283,16.99,0.48,25.2c0.27,0.051,0.374,0.267,0.48,0.479c-0.16,0-0.32,0-0.48,0
	c-1.078-5.161-0.304-12.176-0.96-17.76c0-0.16,0-0.32,0-0.479c0.259-2.462-0.555-5.996,0.48-7.682
	C43.45,119.12,43.45,119.2,43.45,119.28z"/>
<path fill="#171115" d="M143.05,83.52c0.838,0.05,1.055,1.801-0.24,1.439C142.637,84.227,143.056,84.085,143.05,83.52z"/>
<path fill="#666773" d="M90.49,49.2c1.642-1.143,1.783,1.917,0,0.72C90.49,49.68,90.49,49.44,90.49,49.2z"/>
<path fill="#666773" d="M142.089,50.4c-0.326-0.307-0.369-1.175,0.24-1.2c0.428,0.133,0.998,0.123,1.2,0.48
	c0.103,0.662-0.896,0.225-0.96,0.72C142.412,50.4,142.25,50.4,142.089,50.4z"/>
<path fill="#666773" d="M115.93,59.76c-0.627,0.067-1.032-0.088-0.96-0.72c0.652-0.428,2.016,0.018,1.439,0.72
	C116.25,59.76,116.089,59.76,115.93,59.76z"/>
<path fill="#666773" d="M88.57,71.28c-0.359-0.041-0.886,0.085-0.96-0.24c0.064-0.961,2.701-0.409,1.2,0.24
	C88.73,71.28,88.65,71.28,88.57,71.28z"/>
</svg>
